<?xml version="1.0" encoding="UTF-8"?>
<svg width="700pt" height="700pt" version="1.1" viewBox="0 0 700 700" xmlns="http://www.w3.org/2000/svg">
 <path d="m629.2 222.28c-1.6758-5.3672-5.8281-9.6055-11.16-11.383l-151.81-50.602-101.75-152.51c-3.2461-4.8594-8.7148-7.7812-14.559-7.7812-5.8633 0-11.312 2.9297-14.559 7.8008l-101.58 152.49-151.81 50.602c-5.332 1.7773-9.4844 6.0156-11.16 11.383-1.6914 5.375-0.68359 11.219 2.6992 15.723l100.3 133.74-33.461 167.33c-1.2461 6.2031 0.95703 12.586 5.7578 16.715 4.7852 4.1172 11.469 5.3164 17.379 3.1719l186.52-67.832 186.52 67.828c1.9453 0.71094 3.9648 1.0508 5.9805 1.0508 4.1172 0 8.1875-1.4531 11.398-4.2227 4.8008-4.1289 7.0078-10.512 5.7578-16.715l-33.461-167.33 100.3-133.74c3.3828-4.4961 4.3906-10.344 2.6992-15.719z"/>
</svg>
