<?xml version="1.0" encoding="UTF-8"?>
<svg id="Layer_1" data-name="Layer 1" xmlns="http://www.w3.org/2000/svg" viewBox="0 0 92.33 54.53">
  <g id="Layer_2_Copy_4_2_Copy" data-name="Layer 2 Copy 4 2 Copy">
    <path d="M2.21,43.17c.57-.42,1.94,3.24,2.79,2.78,.84-.45,2.37-1.06,3.69-1.49,1.19-.37,2.6-.76,3.43-.9,1.69-.31,4.81-.88,6.74-1.17,.9-.12,2.31-.2,3.59-.22,1.94,0,5.77,.16,7.54,.28,1.09,.09,2.67,.31,3.8,.53,1.45,.3,5.61,1.57,7.46,2.16,2.52,.79,3.86,1.11,6.26,1.88,3.79,1.29,13.8,4.69,15.26,5.05,.65,.15,2.04,.42,2.72,.47,1.4,.11,6.36-.17,7.04-.25,1-.12,2.72-.45,3.95-.74,1.44-.37,5.61-1.69,7.42-2.28,2.16-.75,6.09-2.24,6.17-2.38,0,0,.24-.76,.32-.76,.07,0,.15,.37,.21,.42,.12,.1-1.51-.05-1.45-.1,.03-.03,.84-5.14,.77-7.31,.24-2.5-.64-5.41,.48-7.15-.14-1.69,.13-3.55,.07-6.36-.05-4.07-.12-12.5-.13-16.27,.03-2.73,.09-5.28,.08-5.28-.04,0-.42,.47-.56,.6-.19,.18-10.26,4.24-10.63,4.38-.92,.33-2.44,.73-3.26,.92-1.2,.25-2.54,.47-3.75,.61-.57,.06-2.69,.17-3.62,.19-1.21,.01-2.73-.03-3.91-.11-1.31-.13-2.8-.35-3.69-.51-1.38-.28-5.47-1.38-7.36-1.94-1.9-.62-5.64-1.86-7.47-2.47-.76-.23-2.84-.85-3.63-1.03-1.7-.34-5.14-1.07-7.11-1.54-.99-.22-3.02-.61-3.86-.71-.96-.11-6.57-.42-7.07-.42-.39,0-2.59,.06-3.27,.03-.81-.07-1.82,.04-3.07,.25-1.39,.25-3.02,.65-3.86,.95-.89,.32-2.58,1.17-3.23,1.45-.84,.35-1.84,.67-3.59,1.15-.97,.27-2.67,1-3.53,1.56-.34,.22-1.05,.74-1.33,.96-.17,.13-.35,.37-.39,.54-.01,.05,.13,4,.16,5.57,.02,4.3,0,12.81-.03,17.01-.08,4.27-.33,14.11-.38,14.66-.11,1.1,.37,1.32,.24,1.81" style="fill: none; stroke: #85bb65; stroke-linecap: round; stroke-linejoin: round; stroke-width: 2.98px;"/>
    <path d="M2.41,45.97l-.4,.6" style="fill: none; stroke: #86b562; stroke-linecap: round; stroke-linejoin: round; stroke-width: 2.98px;"/>
    <path d="M16.04,13.81c-.3,.29-3.01,4.11-4.17,5.75-.23,.32-.61,.93-.61,1.16l6.27-5.9c-.42,.46-1.53,1.72-2.22,2.52-1.3,1.53-2.8,3.32-3.02,3.57-.11,.13-.3,.34-.37,.42" style="fill: none; stroke: #85bb65; stroke-linecap: round; stroke-linejoin: round; stroke-width: 1.2px;"/>
    <path d="M20.42,27.24c-.16-.35-.62-1.37-.67-1.5-.08-.26-.1-.49-.05-.7,.12-.54,.36-1.05,.73-1.39,.19-.17,.87-.55,1.26-.67,.73-.22,2.32-.27,3.11-.16,.77,.12,2.54,.71,3.05,.97,.38,.2,.83,.51,1.24,.85,.18,.16,.45,.46,.56,.65,.1,.18,.17,.52,.14,.69-.03,.17-.21,.44-.37,.57-.3,.22-1.08,.48-1.41,.53-.39,.06-1.34,.07-1.76,.02-.85-.1-2.43-.54-3.08-.88-.22-.12-1-.59-1.26-.8-.2-.17-.61-.59-.79-.89-.12-.21-.28-.51-.32-.65-.06-.23-.08-.66-.03-.89,.09-.39,.47-1.02,.74-1.34,.22-.26,.9-.86,1.3-1.13,.32-.22,.89-.53,1.32-.59l.12,.18c-.16,.29-.28,.47-.45,.6-.3,.24-.91,.6-1.18,.72-.32,.14-1.09,.39-1.5,.47-.45,.08-1.2,.12-1.65,.08-.41-.04-1.22-.23-1.55-.35-.28-.11-1.01-.48-1.35-.76-.35-.28-.81-.94-.9-1.26-.07-.31,.06-.9,.25-1.2,.22-.33,.61-.71,1.02-.98,.55-.36,1.11-.65,1.45-.76-.24,.23-2.03,.79-2.7,.89-.44,.07-1.3,.07-1.62-.06-.28-.13-.44-.49-.62-1.1-.03-.12-.07-.24-.1-.36-.21-.09-.37-.11-.65-.05-.77,.15-1.13,.17-1.26,.11-.12-.06-.2-.48-.19-.71,0-.09,.21-.88,.39-1.32,.08-.19,.16-.25,.34-.26,.13,0,2.6-.02,3.06-.04,1.03-.05,4.76-.72,6.68-.93,.9-.08,2.65-.21,3.41-.24,1.1-.03,1.93,.1,2.29,.2-1.84,0-7.07,.03-7.78,.15-.12,.02-.68,.17-.77,.19l5.75-1.34c-.24-.1-.42-.15-.63-.15-.51,0-2.97,.26-3.34,.33,.33,.02,2.47-.04,3.51-.07,1.44-.03,2.43-.01,3.27,.12,.37,.06,2.55,.5,3.47,.59,1.06,.11,2.32,.35,3.02,.64,.73,.31,2.21,.95,2.93,1.1,.16,.04-.05,.85-.05,.85,.09,.12,1.09,.48,1.35,.61,.21,.1,.66,.38,.78,.44,.25,.14,2.46,.34,3.44,.43,.54,.06,2.75,.7,3.21,.82,.95,.24,2.57,.53,2.79,.52-1.22-.75-2.36-1.36-3.24-1.64-.37-.12-1.08-.26-1.45-.31-.72-.09-2.58,.16-3.44,.06-.19-.03-.51-.07-.63-.09,1.79,.5,3.03,.42,3.14,.42l-3.36-1.68c.07,.23,.67,.78,.98,1,.67,.47,2.04,1.21,2.84,1.58,.97,.44,2.16,.92,3.1,1.2,.98,.27,2.96,.82,3.45,.89,.79,.1,2.02,.16,3.3,.14,.95-.02,3.26-.06,3.63-.06,.89,.01,2.78,.35,3.5,.58,.38,.12,1.13,.36,1.41,.38,.75,.01,2.55,.13,3.45,.22,1.08,.12,2.32,.15,3.17,.08,1.57-.09,4.1-.31,6.26-.43,.52-.03,1.21-.13,1.54-.24,.33-.12,1.24-.62,1.4-.7,.92-.45,1.71-.54,2.08-.54,.01,.3-.02,.47-.14,.65-.43,.59-1.32,1.83-1.75,2.61-.43,.78-.74,1.59-1.26,3.05-.11,.29-1.21,2.47-1.43,2.97-.4,.9-1.16,3.18-1.27,3.49-.11,.3-.49,.94-.81,1.25-.42,.4-2.19,1.25-2.88,1.47-.89,.28-2.44,.5-3.36,.52-.99,.02-2.22-.03-3.5-.15-1.38-.14-6.12-1.03-7.28-1.38-.85-.26-5.83-2.2-6.44-2.41-.81-.27-5.5-1.43-7.52-1.92-1.92-.51-6.46-1.71-7.42-1.89-.42-.08-2.82-.39-3.29-.4-.73-.01-.93,.07-1.02,.18,.06,.16,.13,.25,.3,.37,.4,.28,.9,.58,1.16,.7,.51,.23,5.47,1.53,7.3,2,.57,.16,4.25,2.2,5.53,2.86-2.61-.57-4.7-.89-7.49-1.14-.95-.1-3.03-.34-3.44-.37-.72-.04-2.43,0-3.22,.07-1.37,.11-6.65,1.24-7.17,1.29-1.03,.09-1.54,.03-1.87-.04,.15-.25,1.46-1.43,1.7-1.63,.12-.1,.14-.15,.13-.25-.42-.04-1.07,0-1.33,.03-.42,.07-2.63,.77-3.15,1.04-.06,.03-.94,.55-1.25,.69-.4,.18-2.52,.91-3.01,1.05-.32,.09-2.38,.59-2.45,.63,.07-.82,.28-2.97,.29-3.03,.05-.63,.07-5.74,.07-7.51l.74-.16" style="fill: none; stroke: #85bb65; stroke-linecap: round; stroke-linejoin: round; stroke-width: 21.07px;"/>
    <path d="M35.5,31.24c-.9-.06-2.48-.14-2.56-.13-.18,.02-.26,.13-.31,.41,0,.02-.37,1.72-.35,1.84,.03,.13,.19,.18,.48,.16,.17-.02,1.29,.03,1.62,.06,.48,.05,1.22,.26,1.57,.52,.41,.32,.78,.47,1.25,.51,.53,.04,1.18,.05,1.5,.03-.39-.21-2.23-.59-3.37-.86-.3-.08-1.49-.4-1.64-.44-.58-.15-2.41-.14-3.41-.13-.08,0-.16,0-.25,0,0,0,1.53,.36,2.54,.41,.87,.04,5.85-.01,6.69,.13,.41,.07,1.46,.37,1.85,.51,.47,.16,1.06,.5,1.33,.81,.13,.15,.68,1,.87,1.17,.27,.24,1.12,.57,1.5,.72,.89,.35,1.9,.48,3.2,.57,.8,.06,2.19,.35,2.52,.47,.39,.15,2.13,1.1,2.83,1.5,.8,.48,2.14,1.11,2.99,1.28,.19,.04,2.46,.41,3.11,.65,.42,.16,1.61,.87,2.89,1.46,.48,.22,1.1,.41,1.67,.47,.48,.05,2.23,.04,3.12-.04,.83-.07,2.96-.26,3.35-.34,.16-.03,2.56-.78,2.87-.93,.32-.16,.86-.59,.92-.62,.17-.09,.71-.24,.86-.29,.39-.14,2.77-1.74,3.2-1.96,.01-.51-.32-1.68-.39-2.59-.05-.68-.06-1.24,.06-1.72,.12-.43,.33-1.22,.35-1.79,.01-.85-6.97-2.36-6.81-3.18,.22-1.2,4.07-2.97,4.1-3.25,.03-.25,3.01-1.64,3.04-2.05,.03-.46,.84-1.71,.82-3.81,0-.43-.02-1-.02-1.13l-.2,.24" style="fill: none; stroke: #85bb65; stroke-linecap: round; stroke-linejoin: round; stroke-width: 21.07px;"/>
    <path d="M85.28,12.27c-.1-.22-.3-.54-.46-.6-.15-.06-.92-.05-.92-.06-.04-.02,.23-.14,.46-.23l-1.57-.12c.66,0,2.54-.15,3.1-.36,.31-.12,1.26-.68,1.46-.93,.12-.16,.09-.52-.08-.72-.1-.12-.66-.55-.68-.57-.05-.02,.7,.64,.69,.71-.02,.1-.09,.18-.21,.24-.02,0,.36-.31,.58-.48-.29,.16-.62,.43-.68,.61-.04,.12,.24,.53,.31,.65,.1,.18,.14,.61,.08,.85-.02,.08-.27,.74-.31,.91-.15,.66,.14,2.13,.09,2.6-.07,.63-.62,2.68-.77,3.45-.17,.86-.73,5.41-1.08,7.11-.19,.9-.6,2.85-.68,3.62-.11,1.06,.12,12.03,.15,12.17,.03,.15,.36,.67,.47,.99,.13,.41,.25,.72,.29,.81,.24,.04,.38,.04,.52-.02,.24-.1,.73-.36,.86-.43,.52,.69,.71,.99,.69,1.05-.03,.06-.53-.19-.69-.26-.25-.12-.53-.08-.61,.1-.02,.05-.03,.15-.04,.3l.38-.08-.22,.49v-.31" style="fill: none; stroke: #85bb65; stroke-linecap: round; stroke-linejoin: round; stroke-width: 8.84px;"/>
    <path d="M8.74,37.77c-.17,.04-.41,.12-.5,.18-.13,.09-.63,.94-.72,1.13-.18,.4-.22,.7-.23,.98,.24,0,.91-.39,1.3-.62,.22-.14,.39-.15,.74-.11,.01,.25-.25,.63-.53,.94-.19,.21-.65,.49-1.1,.69-.41,.18-1.16,.26-1.69,.17-.06-.01-.16-.03-.31-.06,.11,.21,.17,.4,.12,.49-.06,.11-.63,.36-.82,.44l.02,1.4" style="fill: none; stroke: #85bb65; stroke-linecap: round; stroke-linejoin: round; stroke-width: 8.84px;"/>
  </g>
  <g id="a_Copy" data-name="a Copy">
    <path d="M34.02,39.12c-.77-.14-2.82-.51-3.6-.72-.91-.24-3.01-1.05-3.36-1.2-.97-.42-2.22-1.16-3.08-1.85-.84-.68-2.24-2-2.8-2.69-.54-.68-1.46-2.17-1.8-2.94-.36-.84-.79-2.49-.98-3.67-.14-.93-.39-3.01-.49-3.96-.1-1.24-.11-2.51,.04-3.43,.35-2.13,.82-3.96,1.1-4.54,.3-.6,1.59-2.21,2.19-2.83,.67-.69,2.21-1.84,3.15-2.32,.64-.32,3.15-1.29,3.51-1.41,1.04-.34,2.7-.62,3.34-.59,.4,.02,1.55,.2,1.7,.23,.77,.18,1.86,.79,2.86,1.48,1.11,.8,2.36,1.81,3,2.46,.66,.67,1.8,2.1,2.32,2.75,.51,.64,1.45,1.83,1.85,2.51,.57,1.01,1.24,2.47,1.54,3.41,.15,.49,.74,2.8,.83,3.36,.09,.64,.03,2.27-.04,2.91-.09,.8-.43,2.77-.63,3.77-.22,1.05-.77,2.82-1.17,3.63-.2,.4-.7,1.2-.97,1.54-.55,.69-2.24,2.19-2.76,2.52-.47,.3-.91,.46-1.51,.61-2.78,.71-3.51,.84-4.25,.95" style="fill: none; stroke: #4b9320; stroke-linecap: round; stroke-linejoin: round; stroke-width: 1.93px;"/>
    <path d="M34.02,39.6v-.48" style="fill: none; stroke: #4b9320; stroke-linecap: round; stroke-linejoin: round; stroke-width: 1.93px;"/>
    <path d="M32.06,24.77c-.07-.11-.28-.46-.33-.56-.09-.19-.08-.56,.02-.76,.07-.14,.13-.19,.18-.14,.03,.05,0,.76-.08,.86-.07,.09-.6,.22-.72,.22-.18,0-.52-.15-.66-.28-.13-.12-.32-.46-.38-.65-.18-.66,.12-1.28,.2-1.36,.14,.09,.2,.19,.2,.39,0,.2-.08,.55-.17,.73-.18,.37-.83,.78-1.07,.83-.27,.05-.68,.04-.89-.03-.18-.08-.45-.33-.52-.49-.06-.15-.06-.49,0-.65,.11-.31,.64-.74,.95-.82,.15-.04,.4-.02,.5,.03,.19,.1,.36,.54,.28,.74-.09,.2-.63,.43-.95,.44-.34,0-.5-.14-.54-.23,0-.09,.14-.32,.33-.47,.39-.3,.7-.31,.77-.26l-.08,.11c-.22-.2-.3-.65-.33-1.46-.01-.81,.27-2.13,.28-2.31-.17-.02-.36,.07-.57,.29-.06,.06-.87,1.11-.96,1.25-.16,.25-.37,.99-.41,1.27,.01-.54,.04-.93,.15-1.24,.22-.63,.45-1.24,.52-1.35,.19-.29,.79-.79,.92-.96,.11-.13,.36-.54,.42-.59,.21-.16,.78-.15,1.1-.17,.26-.02,.9-.19,1.35-.19,0,0,.05,0,.09,0,0-.11-.03-.24-.1-.26-.08-.03-.43-.02-.59-.07-.06-.02-.21-.09-.28-.09,0,0,.42,.83,.52,1.06,.25,.61,.53,1.33,1.32,2.75,.18,.32,.89,1.84,1.01,1.91l-.15-2.78c.03,.37,.55,1.13,.64,1.25l-.28-.9c.16,.34,.55,1.19,.75,1.55,.19,.34,.72,1.13,.77,1.24,.21,.4,.32,1.05,.33,1.55,0,.09,0,1.05,0,1.21l.18-2.46c-.02,.35-.06,1.18-.08,1.66-.03,.48-.1,.74-.31,1.14-.15,.28-.69,.87-.77,.95-.29,.3-.72,1.26-.76,1.32-.07,.11-.27,.34-.39,.48,.04,.02,.81-.3,.9-.32,.2-.06,.38-.06,.39-.03-.15,.14-.44,.32-.52,.4-.1,.11-.19,.33-.17,.34h.61s-1.14,.63-1.14,.63c-.36-.05-.74-.24-1.01-.48-.21-.19-.72-.49-.83-.72-.05-.11-.13-.43-.19-.52-.16-.22-1.95-2.04-2.21-2.23-.03,.05-.1,.73-.09,.79,.02,.11,.41,.82,.36,.78-.13-.25-.51-.98-.7-1.27-.24-.35-.77-.98-.73-.95,.04,.03,.41,.44,.61,.66,.21,.23,.26,.36,.11,.24-.35-.26-.65-.73-.75-.91l.82,.95-.39-.45v.16" style="fill: none; stroke: #4b9320; stroke-linecap: round; stroke-linejoin: round; stroke-width: 21.07px;"/>
  </g>
  <g id="Layer_2_Copy_2" data-name="Layer 2 Copy 2">
    <path d="M91.31,2.42c-.82,.56-1.66,1.03-2.7,1.54-1.63,.75-5.32,2.28-7.26,3-2.26,.8-4.91,1.65-6.6,2.07-.85,.2-2.59,.56-3.45,.68-1.18,.14-2.64,.25-3.54,.25-.61,0-2.75-.12-3.6-.23-1.9-.28-5.28-1.06-6.59-1.43-3.82-1.18-12.71-4.07-14.97-4.73-1.54-.42-5.12-1.3-6.99-1.71-1.84-.34-5.56-.88-7.39-1.02-.93-.06-2.76-.13-3.66-.14-.89,.01-2.67,.09-3.56,.16-1.24,.11-2.64,.3-3.55,.45-.9,.17-3.02,.63-3.59,.78-.95,.27-2.74,.85-3.6,1.14-.54,.19-2.44,.96-3.22,1.31-2.37,1.14-4.19,2.21-4.99,2.71-.51,.33-.83,.56-.96,.76-.04,.07-.22,.43-.28,.56" style="fill: none; stroke: #4b9320; stroke-linecap: round; stroke-linejoin: round; stroke-width: 1.42px;"/>
    <path d="M91.62,47.04c-.84,.54-1.69,.98-2.75,1.45-1.65,.7-5.39,2.1-7.35,2.76-2.28,.73-4.96,1.5-6.67,1.85-.86,.17-2.61,.48-3.47,.57-1.18,.11-2.64,.17-3.54,.14-.61-.02-2.75-.21-3.6-.35-1.89-.34-5.24-1.23-6.54-1.64-3.78-1.3-12.57-4.48-14.81-5.21-1.53-.47-5.08-1.47-6.93-1.93-1.83-.39-5.53-1.05-7.35-1.26-.92-.09-2.75-.21-3.65-.25-.89-.01-2.67,0-3.56,.04-1.24,.07-2.65,.21-3.56,.33-.91,.14-3.03,.53-3.61,.67-.95,.24-2.77,.76-3.63,1.02-.55,.17-2.47,.88-3.26,1.2-.83,.37-2.68,1.21-3.38,1.59-2.68,1.49-3.1,1.92-3.24,2.11" style="fill: none; stroke: #4b9320; stroke-linecap: round; stroke-linejoin: round; stroke-width: 1.42px;"/>
    <path d="M1.01,7.94l-.15,41.78" style="fill: none; stroke: #4b9320; stroke-linecap: round; stroke-linejoin: round; stroke-width: .92px;"/>
    <path d="M.86,49.69l.12-.04" style="fill: none; stroke: #4b9320; stroke-linecap: round; stroke-linejoin: round; stroke-width: .92px;"/>
    <path d="M91.61,2.42s-.02,0-.02,.01c0,0-.01,.36-.02,.56-.02,.48-.04,1.13-.05,1.31" style="fill: none; stroke: #4b9320; stroke-linecap: round; stroke-linejoin: round; stroke-width: .92px;"/>
    <path d="M91.52,4.3l.21,42.68" style="fill: none; stroke: #4b9320; stroke-linecap: round; stroke-linejoin: round; stroke-width: .92px;"/>
    <path d="M91.71,46.92c.07,.21,.12,.31,.13,.3,.01-.01,0-.15,0-.42" style="fill: none; stroke: #4b9320; stroke-linecap: round; stroke-linejoin: round; stroke-width: .92px;"/>
    <path d="M91.46,2.21l-.03,2.9" style="fill: none; stroke: #4b9320; stroke-linecap: round; stroke-linejoin: round; stroke-width: .92px;"/>
  </g>
  <g id="Layer_2_Copy" data-name="Layer 2 Copy">
    <path d="M88.85,7.46c-.88,.51-1.9,.96-3,1.38-1.77,.65-5.58,1.89-7.48,2.44-2.25,.62-5.12,1.24-6.98,1.53-.57,.08-2.99,.27-3.73,.28-.49,0-2.97-.14-3.44-.19-.5-.06-2.7-.44-3.65-.63-1.88-.44-5.07-1.37-6.98-1.95-1.98-.63-5.73-1.82-7.51-2.38-1.97-.59-5.13-1.44-6.99-1.9-2.31-.52-5.45-1.09-7.2-1.35-1.54-.2-5.63-.47-7.46-.46-.92,.02-2.97,.12-3.65,.18-.95,.1-2.84,.36-3.77,.51-1.32,.24-5.35,1.29-7,1.87-1.9,.69-3.83,1.56-5.12,2.21-.6,.31-1.19,.69-1.26,.86-.02,.06-.06,.2-.1,.42" style="fill: none; stroke: #4b9320; stroke-linecap: round; stroke-linejoin: round; stroke-width: 1.42px;"/>
    <path d="M88.91,44.59c-.9,.49-1.96,.93-3.08,1.34-1.81,.62-5.5,1.73-7.33,2.22-2.34,.6-4.72,1.08-6.94,1.41-.94,.12-3.02,.25-3.77,.26-.7,0-2.64-.13-3.51-.22-1.3-.15-4.96-.99-6.77-1.51-2.8-.9-12.6-4.29-14.86-4.99-1.58-.46-5.43-1.5-6.74-1.8-1.74-.37-5.25-.98-7.19-1.2-.96-.09-2.84-.23-3.77-.26-1.87-.04-5.17,.1-7.19,.34-1.21,.17-2.63,.42-3.54,.62-2.21,.52-4.82,1.28-6.46,1.88-4.16,1.58-5.12,2.41-5.26,2.57" style="fill: none; stroke: #4b9320; stroke-linecap: round; stroke-linejoin: round; stroke-width: 1.42px;"/>
    <path d="M3.74,9.64l-1.09,35.23" style="fill: none; stroke: #4b9320; stroke-linecap: round; stroke-linejoin: round; stroke-width: .92px;"/>
    <path d="M2.65,44.85l.11-.03" style="fill: none; stroke: #4b9320; stroke-linecap: round; stroke-linejoin: round; stroke-width: .92px;"/>
    <path d="M89.13,7.48s-.02,0-.02,0c0,0-.03,.64-.03,.82-.01,.22-.03,.58-.04,.72" style="fill: none; stroke: #4b9320; stroke-linecap: round; stroke-linejoin: round; stroke-width: .92px;"/>
    <path d="M89.04,9.02l.03,35.47" style="fill: none; stroke: #4b9320; stroke-linecap: round; stroke-linejoin: round; stroke-width: .92px;"/>
    <path d="M89.1,44.8s0-.04,.01-.05c0,0,0-.02,.02-.03" style="fill: none; stroke: #4b9320; stroke-linecap: round; stroke-linejoin: round; stroke-width: .92px;"/>
    <path d="M88.99,7.3l-.04,2.4" style="fill: none; stroke: #4b9320; stroke-linecap: round; stroke-linejoin: round; stroke-width: .92px;"/>
    <path d="M87.95,9.61c-.86,.46-1.89,.87-3.07,1.29-1.91,.65-5.68,1.7-7.52,2.19-1.76,.44-5.37,1.11-6.83,1.26-.52,.05-2.92,.17-3.65,.15-.75-.03-2.86-.21-3.74-.34-1.78-.3-5.23-1.12-6.89-1.6-3.69-1.15-11.75-3.63-14.16-4.28-1.81-.44-5.1-1.22-7.35-1.64-2.36-.38-5.63-.74-7.46-.85-1.51-.07-5.43,.01-7.26,.18-.93,.1-2.62,.34-3.74,.55-2.19,.46-5.14,1.26-7.01,1.92-1.14,.42-2.19,.85-3.47,1.45-.58,.28-1.08,.57-1.14,.71-.02,.06-.05,.21-.1,.46" style="fill: none; stroke: #4b9320; stroke-linecap: round; stroke-linejoin: round; stroke-width: 1.42px;"/>
    <path d="M87.79,43.47c-.88,.44-1.92,.84-3.13,1.23-1.94,.62-5.76,1.6-7.62,2.05-1.78,.41-5.42,1.01-6.89,1.14-.52,.04-2.93,.12-3.66,.08-.75-.04-2.86-.26-3.73-.4-1.77-.33-5.2-1.22-6.84-1.73-3.82-1.27-11.96-3.95-14.43-4.65-1.76-.48-5.01-1.28-7.36-1.75-2.26-.39-5.61-.8-7.42-.93-1.82-.08-5.38-.04-7.29,.12-.93,.1-2.44,.29-3.8,.53-.96,.2-2.72,.57-3.74,.83-.84,.24-2.49,.75-3.27,1.01-3.75,1.35-4.58,2.01-4.72,2.16" style="fill: none; stroke: #4b9320; stroke-linecap: round; stroke-linejoin: round; stroke-width: 1.42px;"/>
    <path d="M4.71,10.45l-.66,32.41" style="fill: none; stroke: #4b9320; stroke-linecap: round; stroke-linejoin: round; stroke-width: .92px;"/>
    <path d="M4.05,42.83l.11-.03" style="fill: none; stroke: #4b9320; stroke-linecap: round; stroke-linejoin: round; stroke-width: .92px;"/>
    <path d="M88.22,9.62s-.01,0-.02,0c0,0-.02,.52-.04,.75-.01,.2-.03,.53-.04,.66" style="fill: none; stroke: #4b9320; stroke-linecap: round; stroke-linejoin: round; stroke-width: .92px;"/>
    <path d="M88.13,11.04l-.18,32.43" style="fill: none; stroke: #4b9320; stroke-linecap: round; stroke-linejoin: round; stroke-width: .92px;"/>
    <path d="M87.98,43.66s0-.04,0-.05c0,0,0-.01,.02-.02" style="fill: none; stroke: #4b9320; stroke-linecap: round; stroke-linejoin: round; stroke-width: .92px;"/>
    <path d="M88.09,9.46l-.06,2.2" style="fill: none; stroke: #4b9320; stroke-linecap: round; stroke-linejoin: round; stroke-width: .92px;"/>
    <path d="M5.19,17.75l-.03,.02c.68,.04,1.29,.05,1.63-.04,.47-.13,2.21-1.11,2.66-1.48,.28-.24,.84-.88,1.04-1.25,.21-.39,.48-1.14,.55-1.56,.08-.5,.3-3.27,.28-4.02,0-.41-.06-.99-.18-1.27" style="fill: none; stroke: #4b9320; stroke-linecap: round; stroke-linejoin: round; stroke-width: .92px;"/>
    <path d="M4.67,34.92c.78,0,2.31,.37,3.57,.72,.54,.16,1.09,.37,1.34,.53,.39,.27,.94,.75,1.21,1.14,.11,.16,.77,1.25,.9,1.58,.05,.14,.07,.3,.06,.52" style="fill: none; stroke: #4b9320; stroke-linecap: round; stroke-linejoin: round; stroke-width: .92px;"/>
    <path d="M81.38,12.5s0,0,0,.01c-.02,.65,0,1.24,.11,1.63,.17,.55,1.05,2.22,1.44,2.71,.21,.26,.75,.79,1.02,.99,.34,.24,.96,.54,1.45,.68,.38,.11,1.22,.2,1.69,.22,.43,.01,1.1-.12,1.36-.18" style="fill: none; stroke: #4b9320; stroke-linecap: round; stroke-linejoin: round; stroke-width: .92px;"/>
    <path d="M81.35,44.8l-.1,.11" style="fill: none; stroke: #4b9320; stroke-linecap: round; stroke-linejoin: round; stroke-width: .84px;"/>
    <path d="M81.14,45.31s.01-.08,.03-.33c.02-.44,.07-1.35,.12-1.84,.06-.56,.2-1.03,.49-1.55,.66-1.1,1.25-1.88,1.85-2.41,.34-.29,.85-.67,1.3-.94,.68-.41,1.93-.65,2.77-.8,.26-.04,.29-.06,.29-.06" style="fill: none; stroke: #4b9320; stroke-linecap: round; stroke-linejoin: round; stroke-width: .84px;"/>
    <path d="M5,17.89h1.45s-1.77-.1-1.77-.1" style="fill: none; stroke: #4b9320; stroke-linecap: round; stroke-linejoin: round; stroke-width: .84px;"/>
    <path d="M87.9,8.84s-.15-.02-.19-.02c-.2,0-.73,.15-.97,.23-.12,.04-.4,.14-.57,.19" style="fill: none; stroke: #4b9320; stroke-linecap: round; stroke-linejoin: round; stroke-width: 1.56px;"/>
    <path d="M88.2,8.48l-.57,.6s.36-.18,.51-.3c.04-.03,.12-.09,.24-.19l-.4,.27,.52-.39-.62,.19,.46-.26-.55,.31" style="fill: none; stroke: #4b9320; stroke-linecap: round; stroke-linejoin: round; stroke-width: 1.56px;"/>
    <path d="M86.5,9.38c-.11,.04-.27,.09-.52,.16-2.11,.61-3.71,.76-3.79,.75l3.81-.58-3.26,.74c-.16-.07,4.62-1.04,5.08-1.25,.01,0,.03,0,.04-.01-.7,0-2.39,.24-3.06,.39-.75,.17-2.1,.59-2.91,.97-.6,.28-1.82,.62-2.35,.67-.66,.06-.9,.1-.95,.11,.09,.12,1.57,.09,2.96,.02l-.22-.03,.48-.32,1,.62-.75-.57c-.07,.11-.09,.19-.04,.35,.23,.84,.75,2.7,.87,2.99,.14-.57-.82-2.37-.85-2.38l.78,3.44-.31-2.18c.07,.12,.96,2.39,1.35,3.12,.2,.37,.53,.81,.69,.91,.08-.1-.7-1.16-.76-1.19-.04,.15,1.18,1.76,1.48,1.96,.28,.17,.51,.19,.75,.12,.09-.03,1.74,.02,1.92,0,.03,.03,.3-.51,.44-.95,.14-.44-.13-4.58-.09-5.57,.01-.34,.09-.82,.14-1.09,.04-.32-.12-1.37-.14-1.43-.09-.02-.56,.57-1.48,1.81-1.42,1.88-2.34,2.62-2.37,2.63l2.49-2.49-4.27,1.59,1.15-1.28c-.2,.14-.67,.72-.84,1.11-.09,.23-.2,.68-.2,.92,0,.49,.34,1.22,.49,1.35,.17,.12,.36,.2,.49,.18,.11-.02,.3-.17,.37-.29,.14-.25,.12-.92,0-1.37-.06-.19-.14-.41-.26-.68l1.76,4.49c.01-.21-.49-1.25-.79-1.77-.38-.66-.89-1.29-1.02-1.31-.11,.15-.15,.26-.14,.45,.01,.49,.42,2.18,.38,2.29l-.64-1.07,.24,.87-.33-.96c.06,.06,.68,.66,.94,.87,.27,.22,.81,.51,1.11,.59,.24,.06,.61,.05,.79-.01,.14-.05,.75-.61,.82-.6l.39,.92c.12,0,.34-.57,.4-.81,.05-.19,.11-.47,.12-.56l-.42,1.38c-.21-.29-.33-1.84-.33-3.11,.03-1.95-.03-3.14-.03-3.35l.33-.45c.06,.12-.35,1.31-.76,2.33-.34,.83-.79,2.11-.88,2.71-.04,.26,0,.37,.02,.4,.16-.11,.23-1.7,.17-2.63-.05-.69-.12-1.36-.14-1.32l-.14,4.16c-.04-.25-.13-1.14-.13-1.23,0-.06,0-.21-.02-.44" style="fill: none; stroke: #4b9320; stroke-linecap: round; stroke-linejoin: round; stroke-width: 1.56px;"/>
    <path d="M79.67,11.67c-.06,0-.1,0-.12,0-.13,0-2.17,.55-2.51,.67-.25,.09-.81,.13-1.02,.15-.17,.02-.79,.24-1.35,.42-.59,.19-2.61,.43-3.07,.53-.83,.19-3.15,.17-4.14,.07-.04,0-.09,0-.14-.01" style="fill: none; stroke: #4b9320; stroke-linecap: round; stroke-linejoin: round; stroke-width: 1.56px;"/>
    <path d="M88.53,18.82v-.13c.06,.6,.26,2.25,.22,2.86-.01,.21-.17,1.25-.2,1.51-.06,.5,0,1.24,.01,1.3,.17,1.95,.2,2.81,.21,3.21,0,0,0,0,0,0" style="fill: none; stroke: #4b9320; stroke-linecap: round; stroke-linejoin: round; stroke-width: 1.2px;"/>
    <path d="M88.43,27.69c.08,.13,.24,1.82,.25,2.74,0,.37-.1,1.23-.12,1.6-.02,.49,.09,2.28,.09,3.17-.02,1-.19,2.55-.21,3.03-.06,1.91,.14,5.79,.1,5.91" style="fill: none; stroke: #4b9320; stroke-linecap: round; stroke-linejoin: round; stroke-width: 1.2px;"/>
    <path d="M87.62,38.1c-.02,.12-.23,.25-.66,.4-.41,.14-2.49,1.1-2.61,1.18-.13,.09-.67,.59-.84,.72,.3-.36,1.25-1.03,1.82-1.21,.13-.04,1.95-.63,2.17-.66-.46,0-.94,.03-1.15,.07-.71,.14-1.55,.59-1.9,.81,.06,0,2.21-1.14,2.48-1.02l-1.41,.36c.13,0,.99,.02,1.33,.11,.18,.06,.49,.22,.61,.32,.12,.11,.3,.38,.34,.52,.09,.32-.08,1.01-.2,1.3-.11,.24-.87,1.79-.9,1.87,.12-.3,.41-.89,.64-1.23,.24-.36,.63-.77,.76-.79,.11,.17-.41,1.37-1.05,2.67-.11,.23-.15,.31-.2,.39l1.01-2.04c0,.13-.42,.95-.7,1.33-.15,.2-.45,.5-.6,.61-.31,.21-1.03,.35-1.48,.38-1.1,.08-2.16,.32-2.23,.47l.99-.57-1.93,.55-.07,.26c-.03-.15,0-.45,.08-1.14,.08-.59,.23-1.1,.46-1.61,.1-.2,.48-.99,.79-1.33,.08-.08,.69-.67,.79-.76-.17,.13-.68,.66-.91,.95-.41,.54-.6,1.31-.58,1.52,.17,.07,.29,.07,.46-.05,.32-.23,1.4-.98,1.72-1.16,0,.15-.43,.72-.67,1.04-.82,1.12-1.05,1.48-1.11,1.59,0,.03,1.28-1.3,1.93-1.85,.75-.62,1.13-.75,1.19-.74-.14,.54-3.03,2.58-3.35,2.69,.29-.49,3.04-1.23,3.62-1.3,.32-.04,.77,0,.96,.12l.03,.12c-.09,.16-.47,.35-.97,.48-.24,.06-2.22,.38-2.36,.35l3-1.46c-.22,.21-1.5,.81-1.96,.89-.25,.05-.64-.02-.75-.13-.11-.12-.11-.5,0-.75,.1-.22,.53-.81,.77-1.05,.47-.47,1.56-1.23,1.79-1.35l-2.71,2.38,2.9-1.58-1.34,1.77c.14-.06,.53-.61,.75-.99,.29-.52,.52-1.13,.45-1.2-.09-.08-.38-.1-.78,.06-.09,.03-2.06,.94-2.13,.98-.15,.08-.3,.26-.37,.42-.19,.43-.61,1.22-.63,1.28-.14,.3-.14,.65-.14,.77l.07-.21c.08-.03,.92-.82,1.27-1.12,.46-.32,1.17-.85,1.32-.87,.14-.02,.49-.06,.57-.11,.21-.13,.47-.3,.58-.39-.1-.08-.69-.16-1.09-.15-.86,.03-1.71,.27-1.83,.3l3.44-1.94c-.1,.03-.95,.4-1.19,.5-.36,.14-1.26,.43-1.51,.52-.03,.16,3.27-.45,3.9-.58l-1.15,.33" style="fill: none; stroke: #4b9320; stroke-linecap: round; stroke-linejoin: round; stroke-width: 1.2px;"/>
    <path d="M88.17,43.99c-.16,.04-1.82,.76-2.7,1.03-.2,.06-.86,.18-1.11,.26-.33,.12-2.37,1.01-3.25,1.24-.31,.08-4.65,1.09-4.63,1.11,.77-.06,2.68-.48,3.5-.69,.92-.25,2.55-.71,3.25-.92,.38-.11,2.91-.69,3.18-.79,.13-.05,.42-.18,.43-.18" style="fill: none; stroke: #4b9320; stroke-linecap: round; stroke-linejoin: round; stroke-width: 1.2px;"/>
    <path d="M65.9,49.04c.05,.1,.12,.18,.19,.21,.03,.01,1.11,.05,2.53,.02,.91-.02,1.97-.15,2.64-.31,1.16-.27,2.45-.62,2.98-.82,.89-.34,1.97-.48,2.11-.56-.33,.03-2.74,.53-3.18,.61-.32,.06-2.56,.33-3.43,.43-.43,.05-2.57,.07-3.03,.12-.91,.1-2.6,.28-2.79,.27,0-.01,2.4-.04,2.71-.01,.05,0,.16,.02,.34,.04l-2.73-.25,.03,.06" style="fill: none; stroke: #4b9320; stroke-linecap: round; stroke-linejoin: round; stroke-width: 1.2px;"/>
    <path d="M49.13,44.29c.05,.02,.36,.27,.71,.37,.51,.14,2.13,.79,2.76,1.02,.17,.08,.95,.51,1.39,.67,1.32,.5,1.96,.7,2.62,.7,.7,0,1.78,.07,2.03,.08l-4.95-1.14c.56,.15,2.07,.5,2.65,.74,.06,.03,1.03,.46,1.11,.5,.38,.13,1.26,.25,1.47,.3,.26,.07,.99,.43,1.43,.5,.3,.05,2.7,.73,3.37,.76,.42,.02,.66,.08,.7,.08" style="fill: none; stroke: #4b9320; stroke-linecap: round; stroke-linejoin: round; stroke-width: 1.2px;"/>
    <path d="M41.64,41.96c.77,.19,2.56,.61,3.2,.87,.47,.19,3.53,1.02,4.46,1.6" style="fill: none; stroke: #4b9320; stroke-linecap: round; stroke-linejoin: round; stroke-width: 1.2px;"/>
    <path d="M31.61,39.69c.14-.08,.72,.11,1.1,.23,.5,.16,4.84,.99,5.47,1.19,.25,.08,1.89,.83,2.15,.89,.69,.17,1.37,.16,1.4,.16-.02-.13-.44-.34-.75-.42-.82-.21-2.57-.57-3-.65-.63-.12-1.3-.33-1.39-.37-.05-.02-.16-.07-.34-.14" style="fill: none; stroke: #4b9320; stroke-linecap: round; stroke-linejoin: round; stroke-width: 1.2px;"/>
    <path d="M31.72,39.74c-.21-.04-.93-.18-1.19-.24-.59-.14-2.42-.65-3.03-.77-.37-.06-1.23-.21-1.54-.24-.14-.01-2.14,.13-2.79,.16-.36,.03-2.8,.37-3.17,.42,.08,.15,1.32,.21,2.74,.2,.93,0,2.6,.06,3.57,.15,.95,.11,2.87,.36,3.18,.38-.76-.1-1.98-.26-3-.46-.99-.18-1.96-.32-3.1-.32-1.06,.01-2.81,.04-3.51,.19-.87,.18-2.45,.5-2.93,.55" style="fill: none; stroke: #4b9320; stroke-linecap: round; stroke-linejoin: round; stroke-width: 1.2px;"/>
    <path d="M5.54,36l-.42-.48c.04-.09,1.69,.32,1.92,.48,0,0,.03,.02,.06,.05-.11,.09-.59,.14-.78,.12-.45-.06-1.83-.55-1.84-.59l.76-.63c-.13,.03-.48,.53-.58,.86-.09,.27-.27,1.13-.28,1.29l.13-1c.07,.09,.04,1.04-.13,2.43-.17,1.4-.25,2.72-.08,3.01,0,.01,.03,.03,.05,.06l.38-1.6c-.02,.16-.12,1.01-.18,1.42-.07,.5-.33,1.23-.59,1.5-.06,.06-.52,.56-.63,.9-.01,.04-.02,.09-.02,.14,.54-.44,3.18-1.01,3.43-1.11,.22-.09,1.05-.56,1.28-.66,.46-.2,2.21-.56,3.15-.75,1.17-.26,2.3-.57,3.44-.69,1.44-.16,2.41-.78,2.4-.8-.02-.08-.44-.24-.93-.24-.59,0-5.02,.98-6.66,1.25-.67,.12-1.74,.48-2.87,.97-.57,.25-2.62,.86-2.72,.91,.31-.03,2.12-.91,2.87-1.33,.65-.37,1.68-1.16,1.74-1.44,0-.03,0-.07-.02-.13-.15-.08-.62,.05-.93,.2-.43,.21-2.72,1.58-2.89,1.6-.06-.14-.03-.32,.11-.6,.35-.69,1.33-1.6,1.52-1.74l-1.95,2.19c-.01-.09,.91-2.21,1.05-2.58,.55-1.55,.6-2.41,.6-2.56l-1.35,2.99,1.11-4.07c-.15,.43-.94,2.34-1.05,2.73-.08,.3-.08,.45-.05,.63,.22-.04,.35-.13,.49-.35,.4-.67,.81-2.21,.96-2.31,.13-.08,.36-.09,.47-.04,0,0,.4,.23,.49,.26,.38,.14,1.53,.03,1.74,.17,.09,.07,.74,.82,.88,.91,.08,.05,.77,.39,.9,.56,.29,.42,.37,1.53,.36,1.54l-2.32,.35,2.18-.31-1.13,.38,1.6-.45c-.3,0-.45-.01-.49-.04-.04-.03-.11-.12-.12-.2-.03-.58-.19-1.13-.38-1.42-.05-.07-.43-.51-.65-.9-.18-.29-.53-.54-.75-.59-.07-.01-1.74-.36-2.19-.29-.38,.06-.69,.24-.78,.32,.05,.08,.69,.2,.78,.29,.02,.02,.04,.06,.07,.13-.03,.21-.33,.59-.7,.95-.84,.82-.98,1.01-.99,1.05,.03-.02,.72-.65,1.04-.92,.53-.45,1.54-.95,1.65-.96-.05,.08-1.78,1.88-2.16,2.34-.46,.55-.58,.8-.63,.94,.11,.05,1.67-1.38,2.4-2.06,.89-.82,1.32-1.19,1.35-1.19-.07,.1-1.62,1.68-2.3,2.38-.79,.83-1.14,1.34-1.2,1.47,.23-.21,1.6-1.61,2.18-2.14,.57-.51,1.8-1.45,1.98-1.47-.08,.23-.66,.83-.97,1.15-1.65,1.63-1.92,1.98-2.09,2.22,.11-.02,1.41-1.02,2.12-1.52,.84-.58,1.97-1.24,2.26-1.38l-2.11,2.16c.17,.03,.81-.39,1.08-.57,.68-.47,1.41-.97,1.5-1.02-.06,.11-.6,.59-.93,.84-.13,.11-.38,.3-.49,.39-.02,.02-.04,.03-.06,.05" style="fill: none; stroke: #4b9320; stroke-linecap: round; stroke-linejoin: round; stroke-width: 1.2px;"/>
    <path d="M3.7,36.18l-.33,5.53,.27-2.33c0,.47-.19,2.5-.21,2.91-.01,.3,.05,.56,.11,.7" style="fill: none; stroke: #4b9320; stroke-linecap: round; stroke-linejoin: round; stroke-width: 1.2px;"/>
    <path d="M3.77,24.75c0,.39-.12,4.64-.15,6.29,0,.08,.17,2.07,.15,2.7-.05,1.05-.2,2.05-.2,2.2" style="fill: none; stroke: #4b9320; stroke-linecap: round; stroke-linejoin: round; stroke-width: 1.2px;"/>
    <path d="M4.08,17.54c-.09,.14-.18,1.82-.24,2.4,0,.15,.05,.83,.05,1,0,.05-.26,2.55-.26,3.03,0,.53,0,1.42,0,1.41" style="fill: none; stroke: #4b9320; stroke-linecap: round; stroke-linejoin: round; stroke-width: 1.2px;"/>
    <path d="M4.95,16.99l2.28-.43-2.28,.78-.14,.03c.29,0,.87-.14,1.41-.31,.44-.14,.94-.25,1.35-.51,.57-.37,1.39-1.14,1.52-1.26,.08-.07,.32-.27,.41-.35l-1.05,.82,1.49-1.25-2.04,1.9c.35-.17,.88-.65,1.01-.77,.13-.12,.63-.57,.9-.92,.34-.43,.56-.79,.61-1.05,.12-.73,.26-1.32,.29-2.39,0-.16,.07-2.44,.13-2.73,.03-.17,.08-.24,.1-.27" style="fill: none; stroke: #4b9320; stroke-linecap: round; stroke-linejoin: round; stroke-width: 1.2px;"/>
    <path d="M10.39,8.77c-.19-.07-1.54,.31-2.05,.52-.71,.29-1.64,.57-2.48,.94-.76,.32-1.2,.61-1.25,.64l.16,.12" style="fill: none; stroke: #4b9320; stroke-linecap: round; stroke-linejoin: round; stroke-width: 1.2px;"/>
    <path d="M5.04,10.66c.08,.06,.18,1.5,.32,2.63,.1,.85,.05,2.46-.07,2.77-.04,.11-.2,.43-.19,.44,.46-.15,.92-.28,1.42-.37,.59-.11,1.2-.33,1.57-.55,.38-.23,.88-.59,1.11-.86,.18-.22,.48-.72,.8-1.36,.22-.45,.39-1,.46-1.42,.06-.41-.04-2.53-.09-2.71-.06-.22-.12-.4-.14-.43" style="fill: none; stroke: #4b9320; stroke-linecap: round; stroke-linejoin: round; stroke-width: 1.2px;"/>
    <path d="M9.99,9.61s-.04,0-.07,.02c-.37,.15-.74,.25-1.48,.41-.34,.07-1.19,.25-1.35,.29-.45,.14-1.69,1.03-1.77,1.08l.65-.48c-.06,.56-.12,2.43-.14,3.41-.02,1.07,.09,1.59,.14,2.02,.03-.18,.3-.45,.76-.85,.58-.5,2.25-1.77,2.56-2.15,.27-.33,.46-.9,.55-1.31,.06-.35,.11-1.92,.1-2.07" style="fill: none; stroke: #4b9320; stroke-linecap: round; stroke-linejoin: round; stroke-width: 1.2px;"/>
    <path d="M9.74,10.24c-.24,.04-.44,.08-.6,.15-.63,.26-1.08,.41-1.71,.59-.38,.11-.72,.3-.78,.46-.04,.1-.31,2.04-.33,2.28-.04,.58,.05,1.58,.06,1.84,.18-.18,1.44-1.98,2.01-2.79,.2-.3,.56-.81,.93-1.17,.16-.16,.33-.73,.41-.94-.75,.44-1.12,.67-1.41,.94-.02,.02-1.42,1.48-1.52,1.5-.08-.2,.62-1.89,.88-2.13,.06,.17-.06,.74-.11,.99-.09,.39-.63,2.47-.62,2.54,.03-.04,.7-1.74,.98-2.14,.42-.59,.78-.65,.87-.64,.08,.12-.03,.65-.23,1.13-.21,.51-.55,1.28-.55,1.37,.25-.1,.7-.56,.94-.85,.3-.36,.54-.73,.65-.92-.13,.02-.57,.24-.61,.26-.02,.01-.05,.02-.07,.02" style="fill: none; stroke: #4b9320; stroke-linecap: round; stroke-linejoin: round; stroke-width: 1.2px;"/>
    <path d="M3.97,17.66c.02-.12,.14-.85,.15-1.41,0-.33,.16-1.24,.18-1.64,.08-1.75-.17-4.53,.11-4.78,.04,0,.3,0,.59-.14,.05-.03,1-.55,1.03-.57,.41-.25,1.12-.44,1.27-.48,.56-.14,2.14-.76,2.56-.92,.35-.13,1.95-.42,2.42-.57,.81-.29,3.87-1.08,4.32-1.24,.13-.04,.3-.1,.35-.12" style="fill: none; stroke: #4b9320; stroke-linecap: round; stroke-linejoin: round; stroke-width: 1.2px;"/>
    <path d="M17.06,5.35c.33-.02,1.14-.09,1.62-.13,1.47-.11,4.9-.39,5.86-.33,.31,.02,2.22,.46,2.31,.47,1.45,.19,2.66,.45,2.89,.48,.44,.05,.69,.04,.88,.02" style="fill: none; stroke: #4b9320; stroke-linecap: round; stroke-linejoin: round; stroke-width: 1.2px;"/>
    <path d="M31.08,5.33c-.14-.02-.27-.05-.57-.12-.98-.22-2.08-.32-3.45-.34-.55,0-.87-.04-1-.07,.67,0,2.6,.2,3.27,.32,.21,.04,1.68,.31,2.42,.33,.44,.02,1.35,.05,1.51,.08,.12,.03,.53,.15,.57,.19,.29,.24,.36,.25,.81,.31,.43,.06,.65,.07,1.04,.07" style="fill: none; stroke: #4b9320; stroke-linecap: round; stroke-linejoin: round; stroke-width: 1.2px;"/>
    <path d="M35.79,5.73c.07,.08,.47,.33,.89,.44,.18,.05,.68,.08,1.19,.1,.48,.02,1.03,.11,1.33,.26,.28,.15,.87,.39,1.17,.48,.33,.09,2.51,.53,3.05,.58,.45,.03,1.67,.42,2.1,.46-.39-.12-2.66-.98-3.58-1.33-.72-.26-1.89-.43-2.98-.43-.71,0-1.57,.24-1.95,.26,.4,.11,2.51,.41,3.04,.53,.24,.05,2.28,.57,3.28,.75,.69,.12,2.24,.4,2.67,.56,.03,.01,1.83,1,2.06,1.1,.5,.22,2.44,.67,2.76,.81,.18,.08,.53,.24,1.14,.34,.36,.06,1.11,.22,1.25,.27,.04,.02,.42,.42,.51,.46" style="fill: none; stroke: #4b9320; stroke-linecap: round; stroke-linejoin: round; stroke-width: 1.2px;"/>
    <path d="M53.97,10.97c-.05,.03-.06,.05-.03,.07,.01,.01,.83,.39,1.15,.6,.34,.23,.7,.36,1.1,.39,.78,.06,2.11,.16,3.04,.35,.54,.12,2.67,.28,2.98,.33,1.07,.17,1.67,.31,2.58,.41,.72,.08,2.21,.24,2.52,.46,.04,.03,.05,.1,.05,.11-.08,.09-1.21,.05-2.21-.14-.63-.12-2.07-.18-2.99-.19-.66,0-1.81-.17-2.21-.18-.19,0-.44,0-.49,0" style="fill: none; stroke: #4b9320; stroke-linecap: round; stroke-linejoin: round; stroke-width: 1.2px;"/>
    <path d="M75.85,47.62l-.39,.14h.3s-1.02,.01-1.02,.01" style="fill: none; stroke: #4b9320; stroke-linecap: round; stroke-linejoin: round; stroke-width: 3.12px;"/>
    <path d="M63.8,48.28c-.13,0-.18,0-.3-.03-.45-.13-1.79-.16-1.9-.16-.05,0-.15,0-.27-.02l.84-34.72L31.74,5.47l-1.21,34.03" style="fill: none; stroke: #4b9320; stroke-linecap: round; stroke-linejoin: round; stroke-width: 1.2px;"/>
  </g>
  <text transform="translate(23.2 29.78) rotate(-.48) scale(1.41 1)" style="fill: #e9eaca; font-family: MyriadPro-Regular, &apos;Myriad Pro&apos;; font-size: 23.07px;"><tspan x="0" y="0">$</tspan></text>
  <g id="a_Copy-2" data-name="a Copy">
    <path d="M63.05,46.19c-.77-.14-2.82-.51-3.6-.72-.91-.24-3.01-1.05-3.36-1.2-.97-.42-2.22-1.16-3.08-1.85-.84-.68-2.24-2-2.8-2.69-.54-.68-1.46-2.17-1.8-2.94-.36-.84-.79-2.49-.98-3.67-.14-.93-.39-3.01-.49-3.96-.1-1.24-.11-2.51,.04-3.43,.35-2.13,.82-3.96,1.1-4.54,.3-.6,1.59-2.21,2.19-2.83,.67-.69,2.21-1.84,3.15-2.32,.64-.32,3.15-1.29,3.51-1.41,1.04-.34,2.7-.62,3.34-.59,.4,.02,1.55,.2,1.7,.23,.77,.18,1.86,.79,2.86,1.48,1.11,.8,2.36,1.81,3,2.46,.66,.67,1.8,2.1,2.32,2.75,.51,.64,1.45,1.83,1.85,2.51,.57,1.01,1.24,2.47,1.54,3.41,.15,.49,.74,2.8,.83,3.36,.09,.64,.03,2.27-.04,2.91-.09,.8-.43,2.77-.63,3.77-.22,1.05-.77,2.82-1.17,3.63-.2,.4-.7,1.2-.97,1.54-.55,.69-2.24,2.19-2.76,2.52-.47,.3-.91,.46-1.51,.61-2.78,.71-3.51,.84-4.25,.95" style="fill: none; stroke: #4b9320; stroke-linecap: round; stroke-linejoin: round; stroke-width: 1.93px;"/>
    <path d="M63.05,46.67v-.48" style="fill: none; stroke: #4b9320; stroke-linecap: round; stroke-linejoin: round; stroke-width: 1.93px;"/>
    <path d="M61.09,31.84c-.07-.11-.28-.46-.33-.56-.09-.19-.08-.56,.02-.76,.07-.14,.13-.19,.18-.14,.03,.05,0,.76-.08,.86-.07,.09-.6,.22-.72,.22-.18,0-.52-.15-.66-.28-.13-.12-.32-.46-.38-.65-.18-.66,.12-1.28,.2-1.36,.14,.09,.2,.19,.2,.39,0,.2-.08,.55-.17,.73-.18,.37-.83,.78-1.07,.83-.27,.05-.68,.04-.89-.03-.18-.08-.45-.33-.52-.49-.06-.15-.06-.49,0-.65,.11-.31,.64-.74,.95-.82,.15-.04,.4-.02,.5,.03,.19,.1,.36,.54,.28,.74-.09,.2-.63,.43-.95,.44-.34,0-.5-.14-.54-.23,0-.09,.14-.32,.33-.47,.39-.3,.7-.31,.77-.26l-.08,.11c-.22-.2-.3-.65-.33-1.46-.01-.81,.27-2.13,.28-2.31-.17-.02-.36,.07-.57,.29-.06,.06-.87,1.11-.96,1.25-.16,.25-.37,.99-.41,1.27,.01-.54,.04-.93,.15-1.24,.22-.63,.45-1.24,.52-1.35,.19-.29,.79-.79,.92-.96,.11-.13,.36-.54,.42-.59,.21-.16,.78-.15,1.1-.17,.26-.02,.9-.19,1.35-.19,0,0,.05,0,.09,0,0-.11-.03-.24-.1-.26-.08-.03-.43-.02-.59-.07-.06-.02-.21-.09-.28-.09,0,0,.42,.83,.52,1.06,.25,.61,.53,1.33,1.32,2.75,.18,.32,.89,1.84,1.01,1.91l-.15-2.78c.03,.37,.55,1.13,.64,1.25l-.28-.9c.16,.34,.55,1.19,.75,1.55,.19,.34,.72,1.13,.77,1.24,.21,.4,.32,1.05,.33,1.55,0,.09,0,1.05,0,1.21l.18-2.46c-.02,.35-.06,1.18-.08,1.66-.03,.48-.1,.74-.31,1.14-.15,.28-.69,.87-.77,.95-.29,.3-.72,1.26-.76,1.32-.07,.11-.27,.34-.39,.48,.04,.02,.81-.3,.9-.32,.2-.06,.38-.06,.39-.03-.15,.14-.44,.32-.52,.4-.1,.11-.19,.33-.17,.34h.61s-1.14,.63-1.14,.63c-.36-.05-.74-.24-1.01-.48-.21-.19-.72-.49-.83-.72-.05-.11-.13-.43-.19-.52-.16-.22-1.95-2.04-2.21-2.23-.03,.05-.1,.73-.09,.79,.02,.11,.41,.82,.36,.78-.13-.25-.51-.98-.7-1.27-.24-.35-.77-.98-.73-.95,.04,.03,.41,.44,.61,.66,.21,.23,.26,.36,.11,.24-.35-.26-.65-.73-.75-.91l.82,.95-.39-.45v.16" style="fill: none; stroke: #4b9320; stroke-linecap: round; stroke-linejoin: round; stroke-width: 21.07px;"/>
  </g>
  <text transform="translate(52.09 36.51) rotate(4.71) scale(1.41 1)" style="fill: #e9eaca; font-family: MyriadPro-Regular, &apos;Myriad Pro&apos;; font-size: 23.07px;"><tspan x="0" y="0">$</tspan></text>
</svg>