<?xml version="1.0" encoding="utf-8"?>
<!-- Generator: Adobe Illustrator 26.5.0, SVG Export Plug-In . SVG Version: 6.00 Build 0)  -->
<svg version="1.1" id="Layer_1" xmlns="http://www.w3.org/2000/svg" xmlns:xlink="http://www.w3.org/1999/xlink" x="0px" y="0px"
	 viewBox="0 0 800 800" style="enable-background:new 0 0 800 800;" xml:space="preserve">
<style type="text/css">
	.st0{fill:#511101;}
	.st1{fill:#8E2018;}
	.st2{fill:#C0C0C0;}
	.st3{fill:#AAAAAA;}
</style>
<g>
	<path class="st0" d="M737.5,0h-225l-325,475h225L737.5,0z"/>
	<path class="st1" d="M62.5,0h225l325,475h-225L62.5,0z"/>
	<path class="st2" d="M412.5,250c152.5,0,275,122.5,275,275S565,800,412.5,800s-275-122.5-275-275S260,250,412.5,250z"/>
	<path class="st3" d="M412.5,325c-110,0-200,90-200,200s90,200,200,200s200-90,200-200S522.5,325,412.5,325z M412.5,675
		c-82.5,0-150-67.5-150-150s67.5-150,150-150s150,67.5,150,150S495,675,412.5,675z"/>
</g>
</svg>
