<?xml version="1.0" encoding="UTF-8"?>
<svg id="Layer_1" data-name="Layer 1" xmlns="http://www.w3.org/2000/svg" viewBox="0 0 1520 1880.78">
  <g id="Layer_2_Copy_7" data-name="Layer 2 Copy 7">
    <g>
      <g>
        <polygon points="338.84 1692.35 439.9 1692.17 430.12 1874.12 146.5 1873.89 146.5 1692.89 146.5 1692.68 338.84 1692.35" style="fill: gold;"/>
        <polygon points="639.5 1691.82 1007.5 1691.18 1077.39 1691.06 1077.39 1874.65 596.61 1874.26 596.61 1873.89 602.64 1691.89 639.5 1691.82" style="fill: gold;"/>
        <polygon points="1356 1690.58 1352.31 1874.88 1352.29 1874.88 1246.16 1874.79 1246.16 1873.89 1241.53 1690.78 1355.82 1690.58 1356 1690.58" style="fill: gold;"/>
        <polygon points="1246.16 1873.89 1246.16 1874.79 1077.39 1874.65 1077.39 1691.06 1178.45 1690.89 1241.53 1690.78 1246.16 1873.89" style="fill: #dcab00;"/>
        <polygon points="487.51 1692.09 602.64 1691.89 596.61 1873.89 596.61 1874.26 430.12 1874.12 439.9 1692.17 487.51 1692.09" style="fill: #fff500;"/>
        <path d="M807.5,1181.8h.46l46.31,.78,1.57-.13c.49,4.59,.94,8.38,1.14,9.09,1.54,5.21,10.26,15.16,15.18,18.35,42.64,27.76,142.48,91.55,199.7,127.6,21.61,13.66,65.75,41.58,88.28,55.83,4.93,3.31,10.45,7.29,12,10.38,3.93,8.21,7.14,37.07,7.86,54.45,.96,39.82-.75,177.38-1.56,229.79v2.95s-101.05,.17-101.05,.17l-69.89,.12c.01-24.97,.25-134.95-1.16-176.59-.78-14.08-3.38-44.95-4.67-54.4-2.45-17.59-9.45-41.9-14.09-48.88-2.25-3.33-22.59-29.56-32.52-42.06-37.65-45.26-144.01-172.66-144.45-173.11-2.31-2.4-3-9.65-3.11-14.25v-.09Z" style="fill: #dcab00;"/>
        <path d="M764.27,1181.07c-.05,.27-.11,.55-.17,.83-20.91,51.98-111.69,204.43-117.9,216.25-2.03,3.75-3.67,8.86-4.61,15.31-2.16,15.43-3.7,87.88-3.94,116.47,.56,64,1.71,147.03,1.85,161.89l-36.86,.07-115.13,.2c.44-49.46,1.71-186.46,3.39-224.09,1.53-23.9,3.95-45.72,5.8-52.35,.9-3.12,5.02-10.03,8.83-14.82,7.95-9.95,33.46-35.14,41.74-42.98,18.79-17.2,66.65-58.84,92.74-81.17,23.85-20.49,80.26-70.41,80.71-70.78,2.63-2.24,5.35-6.36,5.94-9.82,.29-1.64-.52-8.88-.74-11.58l.08-.11c-.08-.44,.08-1.82,.42-3.95l37.85,.63Z" style="fill: #fff500;"/>
        <path d="M439.9,1692.17l-101.06,.18,.33-.9-.17-.06c-.25-47.93-.53-189.7,.66-230.91,.81-18.53,3.06-44.35,6.59-55.58,1.76-5.45,4.83-9.01,9.43-12.22,7.54-5.07,65.54-41.69,86.44-54.93,56.75-35.73,157.68-100.1,201.87-128.76,3.39-2.31,13.52-10.24,16.8-15.8,1.42-2.49,2.52-8.08,3.32-13.8l62.31,1.05c-.34,2.13-.5,3.51-.42,3.95l-.08,.11c.22,2.7,1.03,9.94,.74,11.58-.59,3.46-3.31,7.58-5.94,9.82-.45,.37-56.86,50.29-80.71,70.78-26.09,22.33-73.95,63.97-92.74,81.17-8.28,7.84-33.79,33.03-41.74,42.98-3.81,4.79-7.93,11.7-8.83,14.82-1.85,6.63-4.27,28.45-5.8,52.35-1.68,37.63-2.95,174.63-3.39,224.09l-47.61,.08Z" style="fill: #ffd800;"/>
        <path d="M742.45,1097.1l35.46-.22c-13.67,76.21-8.1,57.2-13.64,84.19l-37.85-.63c2.21-13.63,11.97-57.96,16.03-83.34Z" style="fill: #fff500;"/>
        <path d="M777.17,1079.32c1.27,2.77,.83,17.07,.83,17.07-.03,.16-.06,.33-.09,.49l-35.46,.22c1.46-9.12,2.18-15.8,1.55-17.71-2.52-7.47-17.9-62.58-21.44-68.83-6.35-11.07-23.64-34.62-32.49-46.45-8.81-11.35-25.82-32.97-34.02-43.24-21.14-25.93-47.33-61.15-67.25-90.84-15.62-24.57-42.32-66.57-58.33-93.28-5.52-9.45-14.65-30.65-18.91-44.03-3.65-12.04-11.2-39.68-14.86-54.49-3.26-14.42-8.76-43.38-10-52.04-2.5-19.51-5.36-68.5-6.99-99.11-3.34-59.23-10.41-183.75-14.16-249.01-3.81-65.73-10.03-189.35-12.54-232.44l102-.08c2.37,42.1,8.5,170.54,12.13,234.9,3.75,65.38,11.28,190.85,15.03,250.94,2.7,35.82,8.11,100.78,10.17,116.56,1.5,10.03,4.99,29.45,6.98,38.85,2.9,12.71,9.72,36.57,14.37,49.25,4,10.84,15.64,36.26,21.38,48.02,5.98,11.68,15.41,29.31,25.74,46.46,15.19,24.03,44.72,71.11,58.36,93.95,7.34,12.75,21.81,39.95,25.65,48.81,5.13,11.96,13.1,37.48,15.83,51.39,2.29,11.79,5.71,42.46,7.26,54.47,3.39,22.88,6.21,33.21,9.26,40.17Z" style="fill: #fff500;"/>
        <path d="M807.96,1181.8l.04-2.41c.11-1.76-5.37-72.32-3.08-82.67l52.75-.33c-2.28,7.26-3.37,17.32-3.31,26.36-.04,11.21-.39,39.7-.36,40.55,.08,1.62,1.02,11.51,1.84,19.15l-1.57,.13-46.31-.78Z" style="fill: #dcab00;"/>
        <path d="M1229,5v.39c-2.47,39.36-1.22,139.27-4.86,198.66-4.23,66.58-12.6,190.68-16.74,248.18-5.55,63.72-13.95,154.02-16.78,180.59-1.98,16.46-5.33,35.48-8.48,47.35-3.18,11.84-11.65,35.67-16.94,47.64-5.34,11.97-18.19,36.14-25.6,48.13-7.28,11.44-22.26,33.05-30.39,43.89-8.55,10.87-26.93,32.68-36.75,43.63-10.24,10.98-31.99,32.99-43.52,44.05-23.99,21.84-69.77,64.07-89.6,83.36-8.96,9.09-25.88,26.68-33.86,35.22-7.25,8.09-25.95,30.1-32.53,39.92-5.3,8-12.92,23.09-15.23,30.2-.02,.06-.04,.12-.05,.18l-52.75,.33c.02-.12,.05-.23,.08-.33,2.47-8.73,18.19-78.71,20.4-82.66,4.05-7.16,50.89-75.01,79.83-117.22,14.81-22.07,50.73-75.66,61.62-96.35,7.18-13.72,19.71-42.31,25.07-57.21,4.57-12.78,12.45-40.31,15.41-52.28,2.71-12.13,7.35-36.93,9.27-49.58,1.67-12.85,4.19-39.05,5.08-52.41,1.11-27.92,3.27-86.07,4.33-116.31,1.8-61.96,5.17-187.83,6.74-251.77,1.42-60.19,4.68-192.59,6.01-202.69,.3-2.75-.44-9.16,1.6-12.76l188.64-.15Z" style="fill: #dcab00;"/>
        <path d="M808,1179.39l-.04,2.41h-.46l-43.07-.73h-.16c5.54-26.99-.03-7.98,13.64-84.19l27.01-.16c-2.29,10.35,3.19,80.91,3.08,82.67Z" style="fill: #ffd800;"/>
        <path d="M665.02,1097.58l77.43-.48c-4.06,25.38-13.82,69.71-16.03,83.34l-62.31-1.05c.54-3.78,.94-7.62,1.21-10.66,.67-7.74,.25-62.76-1.11-69.07-.12-.53-.27-1.11-.44-1.73l1.25-.35Z" style="fill: #ffd800;"/>
        <path d="M764.1,1181.9c.11-.28,.22-.56,.33-.83l43.07,.73v.09c.11,4.6,.8,11.85,3.11,14.25,.44,.45,106.8,127.85,144.45,173.11,9.93,12.5,30.27,38.73,32.52,42.06,4.64,6.98,11.64,31.29,14.09,48.88,1.29,9.45,3.89,40.32,4.67,54.4,1.41,41.64,1.17,151.62,1.16,176.59l-368,.64c-.14-14.86-1.29-97.89-1.85-161.89,.24-28.59,1.78-101.04,3.94-116.47,.94-6.45,2.58-11.56,4.61-15.31,6.21-11.82,96.99-164.27,117.9-216.25Z" style="fill: #ffd800;"/>
        <path d="M555.01,5.55l485.35-.4c-2.04,3.6-1.3,10.01-1.6,12.76-1.33,10.1-4.59,142.5-6.01,202.69-1.57,63.94-4.94,189.81-6.74,251.77-1.06,30.24-3.22,88.39-4.33,116.31-.89,13.36-3.41,39.56-5.08,52.41-1.92,12.65-6.56,37.45-9.27,49.58-2.96,11.97-10.84,39.5-15.41,52.28-5.36,14.9-17.89,43.49-25.07,57.21-10.89,20.69-46.81,74.28-61.62,96.35-28.94,42.21-75.78,110.06-79.83,117.22-2.21,3.95-17.93,73.93-20.4,82.66-.03,.1-.06,.21-.08,.33l-27.01,.16c.03-.16,.06-.33,.09-.49,0,0,.44-14.3-.83-17.07-3.05-6.96-5.87-17.29-9.26-40.17-1.55-12.01-4.97-42.68-7.26-54.47-2.73-13.91-10.7-39.43-15.83-51.39-3.84-8.86-18.31-36.06-25.65-48.81-13.64-22.84-43.17-69.92-58.36-93.95-10.33-17.15-19.76-34.78-25.74-46.46-5.74-11.76-17.38-37.18-21.38-48.02-4.65-12.68-11.47-36.54-14.37-49.25-1.99-9.4-5.48-28.82-6.98-38.85-2.06-15.78-7.47-80.74-10.17-116.56-3.75-60.09-11.28-185.56-15.03-250.94-3.63-64.36-9.76-192.8-12.13-234.9Z" style="fill: #ffd800;"/>
        <path d="M744,1079.39c.63,1.91-.09,8.59-1.55,17.71l-77.43,.48-1.25,.35c-2.05-7.37-7.56-20.39-11.74-27.55-7.91-13.34-26.78-35.76-33.79-43.73-11.99-13.19-52.25-53.62-73.54-73.74-23.85-21.66-71.15-65.46-92.07-87.43-10.03-10.96-28.82-32.82-37.58-43.71-8.34-10.86-23.75-32.53-30.81-43.31-8.61-13.68-21.07-36.25-26.67-48.25-5.58-12.02-14.6-35.92-18.04-47.82-3.42-11.9-7.75-33.79-9.41-47.39-2.84-26.03-11.34-115.93-16.99-179.78-4.18-57.53-12.68-181.84-16.98-248.61-3.71-60.06-3.65-160.8-6.13-200.84h.17s162.82-.14,162.82-.14c2.51,43.09,8.73,166.71,12.54,232.44,3.75,65.26,10.82,189.78,14.16,249.01,1.63,30.61,4.49,79.6,6.99,99.11,1.24,8.66,6.74,37.62,10,52.04,3.66,14.81,11.21,42.45,14.86,54.49,4.26,13.38,13.39,34.58,18.91,44.03,16.01,26.71,42.71,68.71,58.33,93.28,19.92,29.69,46.11,64.91,67.25,90.84,8.2,10.27,25.21,31.89,34.02,43.24,8.85,11.83,26.14,35.38,32.49,46.45,3.54,6.25,18.92,61.36,21.44,68.83Z" style="fill: #ffd800;"/>
      </g>
      <g>
        <path d="M1229,5.39c-2.47,39.36-1.22,139.27-4.86,198.66-4.23,66.58-12.6,190.68-16.74,248.18-5.55,63.72-13.95,154.02-16.78,180.59-1.98,16.46-5.33,35.48-8.48,47.35-3.18,11.84-11.65,35.67-16.94,47.64-5.34,11.97-18.19,36.14-25.6,48.13-7.28,11.44-22.26,33.05-30.39,43.89-8.55,10.87-26.93,32.68-36.75,43.63-10.24,10.98-31.99,32.99-43.52,44.05-23.99,21.84-69.77,64.07-89.6,83.36-8.96,9.09-25.88,26.68-33.86,35.22-7.25,8.09-25.95,30.1-32.53,39.92-5.3,8-12.92,23.09-15.23,30.2-.02,.06-.04,.12-.05,.18-2.28,7.26-3.37,17.32-3.31,26.36-.04,11.21-.39,39.7-.36,40.55,.08,1.62,1.02,11.51,1.84,19.15,.49,4.59,.94,8.38,1.14,9.09,1.54,5.21,10.26,15.16,15.18,18.35,42.64,27.76,142.48,91.55,199.7,127.6,21.61,13.66,65.75,41.58,88.28,55.83,4.93,3.31,10.45,7.29,12,10.38,3.93,8.21,7.14,37.07,7.86,54.45,.96,39.82-.75,177.38-1.56,229.79" style="fill: none; stroke: #656a72; stroke-linecap: round; stroke-linejoin: round; stroke-width: 10px;"/>
        <path d="M1224.07,260.79c8.13-15.49,15.73-27.18,26.78-36.08,8.88-6.87,31.31-23.06,43.52-31.66,13.96-9.5,41.04-23.14,55.03-27.76,14.16-4.58,41.94-8.23,56.04-7.6,7.05,.34,21.47,2.29,28.33,3.81,7.28,1.66,20.08,6.27,25.96,9.34,5.84,3.12,16.29,10.82,20.89,15.41,4.94,4.99,11.04,13.46,14.14,19.28,5.15,9.82,12.06,33.39,13.84,47.12,1.71,13.61,1.88,44.07,.37,58.68-1.57,14.6-7.97,43.56-12.41,56.37-4.39,12.5-15.06,36.16-21.6,47.9-6.57,11.72-22.12,34.88-30.83,45.88-8.83,11.11-28.55,32.35-39.46,42.5-11.6,10.77-32.17,27.23-47.32,37.97-10.24,7.05-40.15,25.59-54.46,33.69-14.16,7.52-99.85,50.71-103.32,52.45" style="fill: none; stroke: #656a72; stroke-linecap: round; stroke-linejoin: round; stroke-width: 20px;"/>
        <path d="M290,5.39c.01,.13,.02,.25,.02,.38,2.48,40.04,2.42,140.78,6.13,200.84,4.3,66.77,12.8,191.08,16.98,248.61,5.65,63.85,14.15,153.75,16.99,179.78,1.66,13.6,5.99,35.49,9.41,47.39,3.44,11.9,12.46,35.8,18.04,47.82,5.6,12,18.06,34.57,26.67,48.25,7.06,10.78,22.47,32.45,30.81,43.31,8.76,10.89,27.55,32.75,37.58,43.71,20.92,21.97,68.22,65.77,92.07,87.43,21.29,20.12,61.55,60.55,73.54,73.74,7.01,7.97,25.88,30.39,33.79,43.73,4.18,7.16,9.69,20.18,11.74,27.55,.17,.62,.32,1.2,.44,1.73,1.36,6.31,1.78,61.33,1.11,69.07-.27,3.04-.67,6.88-1.21,10.66-.8,5.72-1.9,11.31-3.32,13.8-3.28,5.56-13.41,13.49-16.8,15.8-44.19,28.66-145.12,93.03-201.87,128.76-20.9,13.24-78.9,49.86-86.44,54.93-4.6,3.21-7.67,6.77-9.43,12.22-3.53,11.23-5.78,37.05-6.59,55.58-1.19,41.21-.91,182.98-.66,230.91" style="fill: none; stroke: #656a72; stroke-linecap: round; stroke-linejoin: round; stroke-width: 10px;"/>
        <path d="M295.96,257.27c-8.13-15.5-15.73-27.18-26.78-36.09-8.88-6.87-31.3-23.05-43.52-31.65-13.96-9.51-41.04-23.15-55.03-27.77-14.16-4.58-41.94-8.23-56.04-7.59-7.05,.33-21.47,2.29-28.33,3.8-7.28,1.66-20.08,6.28-25.96,9.35-5.84,3.12-16.29,10.82-20.89,15.4-4.94,4.99-11.04,13.47-14.14,19.29-5.15,9.83-12.07,33.38-13.85,47.13-1.73,13.63-1.91,44.09-.37,58.68,1.55,14.62,7.96,43.54,12.44,56.36,4.39,12.46,15.09,36.1,21.65,47.8,6.61,11.71,22.14,34.71,30.93,45.8,8.84,11.09,28.54,32.38,39.4,42.57,11.6,10.84,31.98,27.37,47.03,38.23,12.82,8.85,39.82,25.95,54.01,34.18,13.93,7.64,98.77,51.79,102.19,53.57" style="fill: none; stroke: #656a72; stroke-linecap: round; stroke-linejoin: round; stroke-width: 20px;"/>
        <polyline points="290.19 5.76 453.01 5.63 555.01 5.55 1040.36 5.15 1229 5 1229.27 5" style="fill: none; stroke: #656a72; stroke-linecap: round; stroke-linejoin: round; stroke-width: 10px;"/>
        <polyline points="339.18 1691.41 339.17 1691.45 338.84 1692.35 338.81 1692.42" style="fill: none; stroke: #656a72; stroke-linecap: round; stroke-linejoin: round; stroke-width: 6.24px;"/>
        <line x1="149.17" y1="1695.1" x2="148.52" y2="1695.1" style="fill: none; stroke: #656a72; stroke-linecap: round; stroke-linejoin: round; stroke-width: 6.24px;"/>
        <polyline points="146.02 1692.68 146.5 1692.68 338.84 1692.35 439.9 1692.17 487.51 1692.09 602.64 1691.89 639.5 1691.82 1007.5 1691.18 1077.39 1691.06 1178.45 1690.89 1241.53 1690.78 1355.82 1690.58" style="fill: none; stroke: #656a72; stroke-linecap: round; stroke-linejoin: round; stroke-width: 10px;"/>
        <polyline points="1356 1690.39 1356 1690.58 1352.31 1874.88 1352.29 1875.78" style="fill: none; stroke: #656a72; stroke-linecap: round; stroke-linejoin: round; stroke-width: 10px;"/>
        <polyline points="1352.29 1874.88 1246.16 1874.79 1077.39 1874.65 596.61 1874.26 430.12 1874.12 146.5 1873.89" style="fill: none; stroke: #656a72; stroke-linecap: round; stroke-linejoin: round; stroke-width: 10px;"/>
        <line x1="146.5" y1="1873.89" x2="146.5" y2="1692.89" style="fill: none; stroke: #656a72; stroke-linecap: round; stroke-linejoin: round; stroke-width: 10px;"/>
        <polyline points="665.02 1097.58 742.45 1097.1 777.91 1096.88 804.92 1096.72 857.67 1096.39 858 1096.39" style="fill: none; stroke: #656a72; stroke-linecap: round; stroke-linejoin: round; stroke-width: 10px;"/>
        <polyline points="664 1179.39 664.11 1179.39 726.42 1180.44 764.27 1181.07 764.43 1181.07 807.5 1181.8 807.96 1181.8 854.27 1182.58" style="fill: none; stroke: #656a72; stroke-linecap: round; stroke-linejoin: round; stroke-width: 10px;"/>
      </g>
    </g>
  </g>
</svg>