<?xml version="1.0" encoding="UTF-8"?>
<svg id="Layer_1" data-name="Layer 1" xmlns="http://www.w3.org/2000/svg" viewBox="0 0 1327.54 1800">
  <path d="M427.55,1392.04s-68.79,40,48.95,53.54c142.64,16.27,215.54,13.94,372.72-15.81,0,0,41.33,25.91,99.04,48.36-352.37,151.02-797.48-8.75-520.71-86.08" style="fill: #cd7f32;"/>
  <path d="M384.49,1194.97s-77.15,57.11,40.68,69.3c152.37,15.72,272.7,17,480.91-23.09,0,0,28.8,29.2,74.08,45.16-426.04,124.58-900.56,9.82-595.67-91.37" style="fill: #cd7f32;"/>
  <path d="M747.48,860.67c86.82,99.96-22.81,189.91-22.81,189.91,0,0,220.46-113.81,119.21-256.32-94.56-132.9-167.08-198.94,225.5-426.62,0,0-616.21,153.9-321.9,493.03" style="fill: #71160d;"/>
  <path d="M1213.52,1537.8s50.9,41.94-56.06,74.39c-203.39,61.62-846.54,80.22-1025.21,2.46-64.23-27.94,56.22-66.71,94.1-74.85,39.51-8.57,62.09-6.97,62.09-6.97-71.42-50.32-461.66,98.8-198.22,141.5,718.44,116.51,1309.65-52.47,1123.3-136.52" style="fill: #cd7f32;"/>
  <path d="M460.63,990.78s-327.15,77.7-115.85,105.92c89.22,11.94,267.06,9.24,432.73-4.64,135.39-11.42,271.33-35.7,271.33-35.7,0,0-47.74,20.44-82.28,44.03-332.21,87.37-973.98,46.73-789.23-42.65,156.25-75.53,283.29-66.96,283.29-66.96" style="fill: #cd7f32;"/>
  <path d="M1047.49,1318.81c337.71-175.49,181.57-344.13,72.58-321.41-26.71,5.56-38.62,10.38-38.62,10.38,0,0,9.92-15.53,28.86-22.26,215.61-75.8,381.43,223.57-69.6,342.13,0,0,5.23-4.67,6.79-8.84" style="fill: #cd7f32;"/>
  <path d="M843.88,0s187.03,187.09-177.39,474.79c-292.23,230.78-66.64,362.36-.12,512.71-170.58-153.9-295.76-289.38-211.78-415.47C577.86,386.92,919.34,297.18,843.88,0" style="fill: #71160d;"/>
  <path d="M493.81,1794.34c324.16,20.75,821.94-11.51,833.73-164.9,0,0-22.66,58.15-267.9,104.32-276.68,52.07-617.92,45.99-820.31,12.62,0,0,41.43,34.29,254.48,47.95" style="fill: #cd7f32;"/>
</svg>