<?xml version="1.0" encoding="utf-8"?>
<!-- Generator: Adobe Illustrator 26.5.0, SVG Export Plug-In . SVG Version: 6.00 Build 0)  -->
<svg version="1.1" id="Layer_1" xmlns="http://www.w3.org/2000/svg" xmlns:xlink="http://www.w3.org/1999/xlink" x="0px" y="0px"
	 viewBox="0 0 362.9 336" style="enable-background:new 0 0 362.9 336;" xml:space="preserve">
<style type="text/css">
	.st0{fill:#FFD700;stroke:#000000;stroke-width:6;stroke-linecap:round;stroke-linejoin:round;stroke-miterlimit:10;}
</style>
<g id="Layer_2_00000049911210633003809190000002923725354809275817_">
	<path class="st0" d="M343.3,314.9c0.3-0.1,0.4-0.6,0.4-1.2c0-4.8,0-15.2,0-20.7c0-6.2,0-19.1,0-25.9c0-7.5,0-23.1,0-31.2
		c0-8.8,0-27,0-36.4c0-10.1,0-30.9,0-41.5c0-10.3,0-30.2,0-39.9c0-9,0-26.3,0-34.6c0-7.7,0-22.3,0-29.3c0-6.4,0-18.4,0-24.1
		c0-5,0-13.5,0-13.5c0,0-18.2,0-25.4,0c-9.2,0-28.7,0.1-39.1,0.1c-8.8,0-24.6,0-31.6,0c-2.8,0-9,0-9,0c0,0,0.1,18.8,0.2,26.5
		c0.1,9.8,0.2,29.2,0.3,38.8c0.1,7.4,0.2,24.3,0.2,24.3c0,0.1-17.5,0.1-24.6,0.1c-8.9,0-28.2,0.1-38.6,0.1c-9,0-25.3,0.1-32.5,0.1
		c-2.9,0-10.7,0-10.8,0c0,0,0.1,18.3,0.1,26c0,9.9,0,29.2,0.1,38.7c0,7.3,0.1,22.6,0.1,22.6c0.1,0.8,0,1.3-0.2,1.4
		c0,0-17.6,0.1-24.6,0.2c-8.6,0-27.5,0.1-37.8,0.1c-9.7,0-27.4,0-35.4,0c-6.4,0-19,0-19,0c0,0,0,16.7,0,23.5c0,8.5,0,27,0,37.1
		c0,10,0,28.3,0,36.7c0,6.7,0,22.6,0,22.6c0.1,0.3,1.5,0.3,2,0.3c4.9,0,15.2,0,20.7-0.1c6.1,0,18.8-0.1,25.5-0.1
		c7.3,0,22.4-0.1,30.3-0.1c8.5,0,26-0.1,35-0.1c9.7,0,29.6-0.1,39.8-0.1c10.7,0,31.7-0.1,41.9-0.1c9.7,0,28.4-0.1,37.4-0.1
		c8.5,0,24.8-0.1,32.6-0.1c7.3,0,21.2-0.1,27.9-0.1c6.1,0,17.6-0.1,23.1-0.1C337.3,314.9,343.2,314.9,343.3,314.9z"/>
	<path class="st0" d="M192.1,151.6"/>
	<path class="st0" d="M192.1,151.7l-0.4,139.7"/>
	<path class="st0" d="M191.8,286.1"/>
	<path class="st0" d="M192.2,152"/>
	<path class="st0" d="M192.1,152l-31.7,35.6"/>
	<path class="st0" d="M160.4,187.6"/>
	<path class="st0" d="M239.2,157.8v-0.3"/>
	<path class="st0" d="M239.2,157.5l79.3-0.9"/>
	<path class="st0" d="M318.5,156.6l-0.1,0.8"/>
	<path class="st0" d="M239.2,157.4c0-0.1,0-0.1,0-0.1c0,0,0-0.1,0.1-0.1"/>
	<path class="st0" d="M239.4,157.1l-0.2,51.6"/>
	<path class="st0" d="M239.1,208.7"/>
	<path class="st0" d="M239.2,208.6c6.1-0.4,21.4-1.6,30.4-2.1c2-0.1,5.8-0.2,7.7-0.2c1.7,0,5.6,0.1,8.4,0.3c2.6,0.3,6.5,1.1,7.9,1.7
		c1,0.5,8.2,4.3,11,6.1c1.4,0.9,4.4,2.9,5.9,3.9c1.6,1.1,4.3,3.7,5.5,5.3c1.4,1.8,2.9,4.5,3.8,6.5c0.7,1.6,1.8,5,2.4,7.1
		c0.4,1.6,1.4,6.1,1.8,8.1c0.3,2,0.8,6.1,0.9,7.5c0.1,2.4,0,5.8-0.3,7.7c-0.3,1.9-1.2,5.5-1.8,7.1c-0.6,1.6-2.3,4.8-3.3,6.3
		c-1.2,1.7-3.1,3.9-4.5,5.3c-1.2,1.1-3.9,3.3-5.4,4.4c-1.8,1.3-4.8,3-6.6,3.9c-1.8,0.9-5.6,2.4-7.7,3c-1.8,0.5-5.5,1.3-7.3,1.7
		c-1.8,0.3-5.6,0.8-7.5,1c-3.9,0.3-12.1,0.5-16,0.3c-1.9-0.1-5.5-0.4-7.3-0.7c-1.6-0.2-6.6-1.2-8.4-1.7c-2-0.5-5.9-1.8-7.7-2.6
		c-4.2-1.8-10.6-5-12.6-6.3c-2.3-1.4-5.1-3.7-6.9-5.5c-1-1-2.3-2.3-2.7-2.6"/>
</g>
</svg>
