<?xml version="1.0" encoding="utf-8"?>
<!-- Generator: Adobe Illustrator 26.5.0, SVG Export Plug-In . SVG Version: 6.00 Build 0)  -->
<svg version="1.1" id="Layer_1" xmlns="http://www.w3.org/2000/svg" xmlns:xlink="http://www.w3.org/1999/xlink" x="0px" y="0px"
	 viewBox="0 0 362.9 336" style="enable-background:new 0 0 362.9 336;" xml:space="preserve">
<style type="text/css">
	.st0{fill:#C0C0C0;}
	.st1{fill:none;stroke:#000000;stroke-width:6;stroke-linecap:round;stroke-linejoin:round;stroke-miterlimit:10;}
</style>
<g id="Layer_2_00000175308893542822549670000005052963173531585415_">
	<g id="XMLID_00000177458548262660637910000017448089153539280309_">
		<g>
			<path class="st0" d="M316.7,214.6c0.3,5.3,0.3,9.4,0,14.7c-0.3,3.7-1.1,11-1.8,14.6c-0.7,3.7-2.8,11.8-3.7,14.3
				c-0.6,1.8-2.1,5.4-2.8,7.1c-0.8,1.7-2.8,5.8-3.2,6.5c-0.7,1.2-3.1,4.9-4.2,6.4c-1.3,1.7-3.7,4.4-4.8,5.5
				c-1.4,1.3-4.4,3.7-5.9,4.6c-1.8,1.1-4.5,2.4-6.5,3c-1.8,0.5-5.5,1.1-7,1.1s-5.2-0.6-7-1.1c-1.9-0.6-4.7-1.9-6.5-3
				c-1.5-1-4.5-3.3-5.9-4.6c-1.1-1-3.5-3.8-4.8-5.5c-1.1-1.5-3.5-5.2-4.3-6.4c-0.4-0.8-2.5-4.8-3.2-6.5c-0.8-1.8-2.2-5.3-2.8-7.1
				c-0.8-2.4-2.9-10.6-3.7-14.3c-0.7-3.6-1.5-10.9-1.8-14.6c-0.2-5.2-0.2-9.4,0-14.7c0.3-3.7,1.1-11,1.8-14.6
				c0.7-3.7,2.8-11.8,3.7-14.2c0.7-1.8,2.1-5.4,2.8-7.1c0.8-1.7,2.8-5.8,3.2-6.6c0.7-1.2,3.1-4.9,4.3-6.4c1.3-1.7,3.7-4.4,4.8-5.5
				c1.5-1.4,4.4-3.7,5.9-4.6c1.8-1.1,4.5-2.4,6.5-3c1.7-0.5,5.5-1.1,7-1.1c1.5,0,5.2,0.6,7,1.1c2,0.6,4.7,1.9,6.5,3
				c1.5,1,4.5,3.3,5.9,4.6c1.1,1,3.5,3.8,4.8,5.5c1.1,1.5,3.5,5.2,4.2,6.4c0.5,0.8,2.5,4.8,3.2,6.6c0.8,1.8,2.2,5.3,2.8,7.1
				c0.9,2.4,3,10.6,3.7,14.2C315.6,203.6,316.4,210.9,316.7,214.6z"/>
			<path class="st0" d="M343.8,16.6c0,0,0,8.4,0,13.5c0,5.7,0,17.7,0,24.1c0,7,0,21.7,0,29.3c0,8.3,0,25.6,0,34.6
				c0,9.6,0,29.6,0,39.9c0,10.7,0,31.4,0,41.5c0,9.4,0,27.6,0,36.4c0,8.1,0,23.7,0,31.2c0,6.8,0,19.8,0,25.9c0,5.5,0,15.8,0,20.7
				c0,0.5-0.2,1.1-0.4,1.2c-0.1,0-6,0-10.9,0c-5.5,0-17,0.1-23.1,0.1c-6.7,0-20.6,0.1-27.9,0.1c-7.9,0-24.2,0.1-32.6,0.1
				c-9.1,0-27.8,0.1-37.4,0.1c-10.3,0-31.2,0.1-41.9,0.1c-10.3,0-30.2,0.1-39.8,0.1c-9.1,0-26.6,0.1-35.1,0.1
				c-7.9,0-23,0.1-30.3,0.1c-6.7,0-19.4,0-25.5,0.1c-5.5,0-15.8,0-20.7,0.1c-0.6,0-1.9,0-2-0.3c0,0,0-15.9,0-22.6
				c0-8.4,0-26.7,0-36.7c0-10.1,0-28.6,0.1-37.1c0-6.8,0-23.5,0-23.5c0,0,12.6,0,19,0c8,0,25.7,0,35.4,0c10.2,0,29.1-0.1,37.8-0.1
				c7,0,24.6-0.1,24.6-0.2c0.2-0.1,0.3-0.5,0.2-1.4c0,0-0.1-15.4-0.1-22.6c0-9.5,0-28.9,0-38.7c0-7.7-0.1-26-0.1-26
				c0,0,7.9,0,10.8,0c7.2,0,23.5-0.1,32.5-0.1c10.4,0,29.6-0.1,38.6-0.1c7.1,0,24.6,0,24.6-0.1c0,0-0.1-16.9-0.2-24.3
				c-0.1-9.6-0.2-29-0.3-38.8c-0.1-7.7-0.2-26.5-0.2-26.5c0,0,6.2,0,9,0c7,0,22.7,0,31.6,0c10.4,0,29.9-0.1,39.1-0.1
				C325.6,16.6,343.8,16.6,343.8,16.6z M316.7,229.3c0.3-5.2,0.3-9.4,0-14.7c-0.3-3.7-1.1-11-1.8-14.6c-0.7-3.7-2.8-11.8-3.7-14.2
				c-0.6-1.8-2.1-5.4-2.8-7.1c-0.8-1.7-2.8-5.8-3.2-6.6c-0.7-1.2-3.1-4.9-4.2-6.4c-1.3-1.7-3.7-4.4-4.8-5.5
				c-1.4-1.4-4.4-3.7-5.9-4.6c-1.8-1.1-4.5-2.4-6.5-3c-1.8-0.5-5.5-1.1-7-1.1c-1.5,0-5.2,0.6-7,1.1c-1.9,0.6-4.7,1.9-6.5,3
				c-1.5,1-4.5,3.3-5.9,4.6c-1.1,1-3.5,3.8-4.8,5.5c-1.1,1.5-3.5,5.2-4.3,6.4c-0.4,0.8-2.5,4.8-3.2,6.6c-0.8,1.8-2.2,5.3-2.8,7.1
				c-0.8,2.4-2.9,10.6-3.7,14.2c-0.7,3.6-1.5,10.9-1.8,14.6c-0.2,5.3-0.2,9.4,0,14.7c0.3,3.7,1.1,11,1.8,14.6
				c0.7,3.7,2.8,11.8,3.7,14.3c0.7,1.8,2.1,5.4,2.8,7.1c0.8,1.7,2.8,5.8,3.2,6.5c0.7,1.2,3.1,4.9,4.3,6.4c1.3,1.7,3.7,4.4,4.8,5.5
				c1.5,1.3,4.4,3.7,5.9,4.6c1.8,1.1,4.5,2.4,6.5,3c1.7,0.5,5.5,1.1,7,1.1s5.2-0.6,7-1.1c2-0.6,4.7-1.9,6.5-3c1.5-1,4.5-3.3,5.9-4.6
				c1.1-1,3.5-3.8,4.8-5.5c1.1-1.5,3.5-5.2,4.2-6.4c0.5-0.8,2.5-4.8,3.2-6.5c0.8-1.8,2.2-5.3,2.8-7.1c0.9-2.4,3-10.6,3.7-14.3
				C315.6,240.3,316.4,233,316.7,229.3z"/>
		</g>
		<g>
			<path class="st1" d="M343.3,314.9c0.3-0.1,0.4-0.6,0.4-1.2c0-4.8,0-15.2,0-20.7c0-6.2,0-19.1,0-25.9c0-7.5,0-23.1,0-31.2
				c0-8.8,0-27,0-36.4c0-10.1,0-30.9,0-41.5c0-10.3,0-30.2,0-39.9c0-9,0-26.3,0-34.6c0-7.7,0-22.3,0-29.3c0-6.3,0-18.4,0-24.1
				c0-5,0-13.5,0-13.5s-18.1,0-25.5,0c-9.2,0-28.7,0.1-39.1,0.1c-8.8,0-24.6,0-31.6,0c-2.8,0-9,0-9,0c0,0,0.1,18.8,0.2,26.5
				c0.1,9.8,0.2,29.2,0.3,38.8c0.1,7.4,0.2,24.3,0.2,24.3c0,0.1-17.5,0.1-24.6,0.1c-8.9,0-28.2,0.1-38.6,0.1c-9,0-25.3,0.1-32.5,0.1
				c-2.9,0-10.7,0-10.8,0c0,0,0.1,18.3,0.1,26c0,9.9,0,29.2,0,38.7c0,7.3,0.1,22.6,0.1,22.6c0.1,0.9,0,1.2-0.2,1.4
				c0,0-17.6,0.1-24.6,0.2c-8.7,0-27.5,0.1-37.8,0.1c-9.7,0-27.4,0-35.4,0c-6.4,0-19,0-19,0c0,0,0,16.7,0,23.5c0,8.4,0,27-0.1,37.1
				c0,10,0,28.3,0,36.7c0,6.7,0,22.6,0,22.6c0.1,0.3,1.5,0.3,2,0.3c4.9,0,15.2,0,20.7-0.1c6.1,0,18.8,0,25.5-0.1
				c7.3,0,22.4-0.1,30.3-0.1c8.5,0,26-0.1,35.1-0.1c9.7,0,29.6-0.1,39.8-0.1c10.7,0,31.6-0.1,41.9-0.1c9.6,0,28.4-0.1,37.4-0.1
				c8.5,0,24.8-0.1,32.6-0.1c7.3,0,21.2-0.1,27.9-0.1c6.1,0,17.6-0.1,23.1-0.1C337.3,314.9,343.2,314.9,343.3,314.9z"/>
			<path class="st1" d="M276.7,151.4c1.5,0,5.2,0.6,7,1.1c2,0.6,4.7,1.9,6.5,3c1.5,1,4.5,3.3,5.9,4.6c1.1,1,3.5,3.8,4.8,5.5
				c1.1,1.5,3.5,5.2,4.2,6.4c0.5,0.8,2.5,4.8,3.2,6.6c0.8,1.8,2.2,5.3,2.8,7.1c0.9,2.4,3,10.6,3.7,14.2c0.7,3.6,1.5,10.9,1.8,14.6
				c0.3,5.3,0.3,9.4,0,14.7c-0.3,3.7-1.1,11-1.8,14.6c-0.7,3.7-2.8,11.8-3.7,14.3c-0.6,1.8-2.1,5.4-2.8,7.1
				c-0.8,1.7-2.8,5.8-3.2,6.5c-0.7,1.2-3.1,4.9-4.2,6.4c-1.3,1.7-3.7,4.4-4.8,5.5c-1.4,1.3-4.4,3.7-5.9,4.6c-1.8,1.1-4.5,2.4-6.5,3
				c-1.8,0.5-5.5,1.1-7,1.1s-5.2-0.6-7-1.1c-1.9-0.6-4.7-1.9-6.5-3c-1.5-1-4.5-3.3-5.9-4.6c-1.1-1-3.5-3.8-4.8-5.5
				c-1.1-1.5-3.5-5.2-4.3-6.4c-0.4-0.8-2.5-4.8-3.2-6.5c-0.8-1.8-2.2-5.3-2.8-7.1c-0.8-2.4-2.9-10.6-3.7-14.3
				c-0.7-3.6-1.5-10.9-1.8-14.6c-0.2-5.2-0.2-9.4,0-14.7c0.3-3.7,1.1-11,1.8-14.6c0.7-3.7,2.8-11.8,3.7-14.2
				c0.7-1.8,2.1-5.4,2.8-7.1c0.8-1.7,2.8-5.8,3.2-6.6c0.7-1.2,3.1-4.9,4.3-6.4c1.3-1.7,3.7-4.4,4.8-5.5c1.5-1.4,4.4-3.7,5.9-4.6
				c1.8-1.1,4.5-2.4,6.5-3C271.5,152,275.2,151.4,276.7,151.4z"/>
			<line class="st1" x1="205.8" y1="152.4" x2="205.5" y2="292.1"/>
			<line class="st1" x1="205.8" y1="152.7" x2="174.1" y2="188.3"/>
		</g>
	</g>
</g>
</svg>
