<?xml version="1.0" encoding="utf-8"?>
<!-- Generator: Adobe Illustrator 26.5.0, SVG Export Plug-In . SVG Version: 6.00 Build 0)  -->
<svg version="1.1" id="Layer_1" xmlns="http://www.w3.org/2000/svg" xmlns:xlink="http://www.w3.org/1999/xlink" x="0px" y="0px"
	 viewBox="0 0 362.9 336" style="enable-background:new 0 0 362.9 336;" xml:space="preserve">
<style type="text/css">
	.st0{fill:#CD7F32;}
	.st1{fill:none;stroke:#000000;stroke-width:6;stroke-linecap:round;stroke-linejoin:round;stroke-miterlimit:10;}
</style>
<g id="Layer_2_00000096737933900084551150000016768465629805368766_">
	<g id="XMLID_00000116940628852602112670000015902625082483975062_">
		<g>
			<path class="st0" d="M343.8,16.6c0,0,0,8.4,0,13.5c0,5.7,0,17.7,0,24.1c0,7,0,21.7,0,29.3c0,8.3,0,25.6,0,34.6
				c0,9.6,0,29.6,0,39.9c0,10.7,0,31.4,0,41.5c0,9.4,0,27.6,0,36.4c0,8.1,0,23.7,0,31.2c0,6.8,0,19.8,0,25.9c0,5.5,0,15.8,0,20.7
				c0,0.5-0.2,1.1-0.4,1.2c-0.1,0-6,0-10.9,0c-5.5,0-17,0.1-23.1,0.1c-6.7,0-20.6,0.1-27.9,0.1c-7.9,0-24.2,0.1-32.6,0.1
				c-9.1,0-27.8,0.1-37.4,0.1c-10.3,0-31.2,0.1-41.9,0.1c-10.3,0-30.2,0.1-39.8,0.1c-9.1,0-26.6,0.1-35.1,0.1
				c-7.9,0-23,0.1-30.3,0.1c-6.7,0-19.4,0-25.5,0.1c-5.5,0-15.8,0-20.7,0.1c-0.6,0-1.9,0-2-0.3c0,0,0-15.9,0-22.6
				c0-8.4,0-26.7,0-36.7c0-10.1,0-28.6,0.1-37.1c0-6.8,0-23.5,0-23.5c0,0,12.6,0,19,0c8,0,25.7,0,35.4,0c10.2,0,29.1-0.1,37.8-0.1
				c7,0,24.6-0.1,24.6-0.2c0.2-0.1,0.3-0.5,0.2-1.4c0,0-0.1-15.4-0.1-22.6c0-9.5,0-28.9,0-38.7c0-7.7-0.1-26-0.1-26
				c0,0,7.9,0,10.8,0c7.2,0,23.5-0.1,32.5-0.1c10.4,0,29.6-0.1,38.6-0.1c7.1,0,24.6,0,24.6-0.1c0,0-0.1-16.9-0.2-24.3
				c-0.1-9.6-0.2-29-0.3-38.8c-0.1-7.7-0.2-26.5-0.2-26.5c0,0,6.2,0,9,0c7,0,22.7,0,31.6,0c10.4,0,29.9-0.1,39.1-0.1
				C325.6,16.6,343.8,16.6,343.8,16.6z"/>
		</g>
		<g>
			<path class="st1" d="M343.3,314.9c0.3-0.1,0.4-0.6,0.4-1.2c0-4.8,0-15.2,0-20.7c0-6.2,0-19.1,0-25.9c0-7.5,0-23.1,0-31.2
				c0-8.8,0-27,0-36.4c0-10.1,0-30.9,0-41.5c0-10.3,0-30.2,0-39.9c0-9,0-26.3,0-34.6c0-7.7,0-22.3,0-29.3c0-6.3,0-18.4,0-24.1
				c0-5,0-13.5,0-13.5s-18.1,0-25.5,0c-9.2,0-28.7,0.1-39.1,0.1c-8.8,0-24.6,0-31.6,0c-2.8,0-9,0-9,0c0,0,0.1,18.8,0.2,26.5
				c0.1,9.8,0.2,29.2,0.3,38.8c0.1,7.4,0.2,24.3,0.2,24.3c0,0.1-17.5,0.1-24.6,0.1c-8.9,0-28.2,0.1-38.6,0.1c-9,0-25.3,0.1-32.5,0.1
				c-2.9,0-10.7,0-10.8,0c0,0,0.1,18.3,0.1,26c0,9.9,0,29.2,0,38.7c0,7.3,0.1,22.6,0.1,22.6c0.1,0.9,0,1.2-0.2,1.4
				c0,0-17.6,0.1-24.6,0.2c-8.7,0-27.5,0.1-37.8,0.1c-9.7,0-27.4,0-35.4,0c-6.4,0-19,0-19,0c0,0,0,16.7,0,23.5c0,8.4,0,27-0.1,37.1
				c0,10,0,28.3,0,36.7c0,6.7,0,22.6,0,22.6c0.1,0.3,1.5,0.3,2,0.3c4.9,0,15.2,0,20.7-0.1c6.1,0,18.8,0,25.5-0.1
				c7.3,0,22.4-0.1,30.3-0.1c8.5,0,26-0.1,35.1-0.1c9.7,0,29.6-0.1,39.8-0.1c10.7,0,31.6-0.1,41.9-0.1c9.6,0,28.4-0.1,37.4-0.1
				c8.5,0,24.8-0.1,32.6-0.1c7.3,0,21.2-0.1,27.9-0.1c6.1,0,17.6-0.1,23.1-0.1C337.3,314.9,343.2,314.9,343.3,314.9z"/>
			<line class="st1" x1="216.1" y1="152.6" x2="216.1" y2="152.4"/>
			<polyline class="st1" points="216.1,152.4 216.3,152.4 295.5,151.6 			"/>
			<line class="st1" x1="295.5" y1="151.6" x2="295.4" y2="152.3"/>
			<path class="st1" d="M216.2,152.3c0-0.1,0-0.1,0-0.1c0,0,0-0.1,0.1-0.1"/>
			<polyline class="st1" points="216.3,152 216.3,152.4 216.1,199.3 			"/>
			<path class="st1" d="M216.1,199.2c6.1-0.4,21.4-1.4,30.4-1.9c2-0.1,5.8-0.2,7.7-0.2c1.7,0,5.6,0,8.4,0.3c2.6,0.2,6.5,1,7.9,1.6
				c1,0.4,8.2,4,11.1,5.6c1.5,0.9,5.6,3.4,6.2,3.8c1.6,1,4.4,3.7,5.7,5.2c0.6,0.8,1.8,2.5,2.2,3.2c0.9,1.7,2.2,4.8,2.8,6.6
				c0.6,1.8,1.5,5.1,2.1,7.8c0.4,2,1,6,1.2,7.5c0.2,2.3,0.2,5.2-0.1,7.5c-0.3,1.9-1.2,5.5-1.9,7.1c-0.7,1.6-2.5,4.8-3.7,6.3
				c-1.3,1.7-3.8,4-4.9,4.9c-1.3,1.1-4,3-5.8,4.1c-1.9,1.2-5.1,2.8-7,3.5c-1.9,0.8-6.3,2.2-8.2,2.6c-0.8,0.2-5.2,1-7,1.2
				c-3.7,0.5-11.7,1-15.8,1c-2,0-5.8-0.1-7.7-0.2c-1.8-0.1-6.1-0.6-7.4-0.8c-2.2-0.4-6.4-1.3-8.4-1.8c-2.2-0.6-5-1.6-7.5-2.6
				c-1.7-0.7-4.9-2-6.3-2.7c-1.4-0.7-4.5-2.2-6.7-3.7c-2.2-1.5-6.6-5.4-7.4-6.1"/>
		</g>
	</g>
</g>
</svg>
