<?xml version="1.0" encoding="utf-8"?>
<!-- Generator: Adobe Illustrator 26.5.0, SVG Export Plug-In . SVG Version: 6.00 Build 0)  -->
<svg version="1.1" id="Layer_1" xmlns="http://www.w3.org/2000/svg" xmlns:xlink="http://www.w3.org/1999/xlink" x="0px" y="0px"
	 viewBox="0 0 362.9 336" style="enable-background:new 0 0 362.9 336;" xml:space="preserve">
<style type="text/css">
	.st0{fill:#FFD700;}
	.st1{fill:#FFEE26;}
	.st2{fill:none;stroke:#060606;stroke-width:5;stroke-linecap:round;stroke-linejoin:round;stroke-miterlimit:10;}
</style>
<g id="Layer_2_00000118364465363802807200000012070338636937277597_">
	<g id="XMLID_00000070108604054848276040000003829300663634787492_">
		<g>
			<path class="st0" d="M351.1,125.8v0.1c-3.6,19.8-2.6,38.6-14.9,68.2c-16.3,41.5-61.2,44.6-61.2,44.6s-8.5,1.7-19.9-0.2l0.2-1.2
				l60.6-110.5l0.4-0.3v-0.7L351.1,125.8z"/>
			<path class="st1" d="M291.1,126.3v-0.6h25.3v0.7l-0.4,0.3l-60.6,110.5l-0.2,1.2c-7.7-1.3-16.8-4.2-25.6-10.4l60.9-101.6
				C290.6,126.4,290.9,126.4,291.1,126.3z"/>
			<path class="st0" d="M200.6,135.9l-25.8,0v0.2c0.6,14.5,0.5,66.2-22.3,86.5c-23,21.2-51.5,15.5-51.5,15.5s-13.2-0.9-27.9-8.4
				l0.4-0.7L130.9,126v-0.2l160.1,0v0.6c-0.2,0-0.4,0.1-0.7,0.1l-60.9,101.6c0,0,0,0,0,0c-2-1.4-4-3-5.9-4.8c-27-24.1-23-87-23-87
				V135.9z"/>
			<path class="st1" d="M130.9,125.7v0.2L73.5,229.1l-0.4,0.7c-6-3.1-12.3-7.3-18-12.9l1.6-0.6l48.4-89.7v-0.8L130.9,125.7z"/>
			<path class="st0" d="M56.7,216.2l-1.6,0.6c-6-6-11.4-13.6-15.2-23.3c-11.1-26.8-14-50.1-16.9-67.9l82.1,0v0.8L56.7,216.2z"/>
		</g>
		<g>
			<polyline class="st2" points="22.8,125.7 23,125.7 105.1,125.7 130.9,125.7 291.1,125.7 316.3,125.7 351.1,125.8 351.3,125.8 			
				"/>
			<polyline class="st2" points="174.7,135.9 174.8,135.9 200.6,135.9 201,135.9 			"/>
			<path class="st2" d="M200.6,136.2c0,0-4,62.9,23,87c1.9,1.8,3.9,3.4,5.9,4.8c0,0,0,0,0,0c8.8,6.2,17.9,9.2,25.6,10.4
				c11.4,1.9,19.9,0.2,19.9,0.2s44.9-3.2,61.2-44.6c12.2-29.5,11.3-48.4,14.9-68.2"/>
			<path class="st2" d="M174.8,136.2c0.6,14.5,0.5,66.2-22.3,86.5c-23,21.2-51.5,15.5-51.5,15.5s-13.2-0.9-27.9-8.4
				c-6-3.1-12.3-7.3-18-12.9c-6-6-11.4-13.6-15.2-23.3c-11.1-26.8-14-50.1-16.9-67.9c0,0,0-0.1,0-0.1"/>
			<polyline class="st2" points="229.5,228.1 229.5,228 229.5,227.9 			"/>
		</g>
	</g>
</g>
</svg>
